<mxfile host="app.diagrams.net" agent="Mozilla/5.0 (Windows NT 10.0; Win64; x64) AppleWebKit/537.36 (KHTML, like Gecko) Chrome/132.0.0.0 Safari/537.36" version="26.0.8" pages="2">
  <diagram name="Page-1" id="e56a1550-8fbb-45ad-956c-1786394a9013">
    <mxGraphModel dx="4383" dy="1162" grid="1" gridSize="10" guides="1" tooltips="1" connect="1" arrows="1" fold="1" page="1" pageScale="1" pageWidth="1100" pageHeight="850" background="none" math="0" shadow="0">
      <root>
        <mxCell id="0" />
        <mxCell id="1" parent="0" />
        <mxCell id="2e49270ec7c68f3f-80" value="Conversations" style="swimlane;html=1;fontStyle=0;childLayout=stackLayout;horizontal=1;startSize=26;fillColor=#e0e0e0;horizontalStack=0;resizeParent=1;resizeLast=0;collapsible=1;marginBottom=0;swimlaneFillColor=#ffffff;align=center;rounded=0;shadow=0;comic=0;labelBackgroundColor=none;strokeWidth=1;fontFamily=Verdana;fontSize=14" parent="1" vertex="1">
          <mxGeometry x="-320" y="360" width="400" height="732" as="geometry" />
        </mxCell>
        <mxCell id="2e49270ec7c68f3f-81" value="uniqueId (payment_token_id, external_ticket_id)" style="shape=partialRectangle;top=0;left=0;right=0;bottom=1;html=1;align=left;verticalAlign=middle;fillColor=none;spacingLeft=34;spacingRight=4;whiteSpace=wrap;overflow=hidden;rotatable=0;points=[[0,0.5],[1,0.5]];portConstraint=eastwest;dropTarget=0;fontStyle=5;" parent="2e49270ec7c68f3f-80" vertex="1">
          <mxGeometry y="26" width="400" height="30" as="geometry" />
        </mxCell>
        <mxCell id="2e49270ec7c68f3f-82" value="PK" style="shape=partialRectangle;top=0;left=0;bottom=0;html=1;fillColor=none;align=left;verticalAlign=middle;spacingLeft=4;spacingRight=4;whiteSpace=wrap;overflow=hidden;rotatable=0;points=[];portConstraint=eastwest;part=1;fontStyle=1" parent="2e49270ec7c68f3f-81" vertex="1" connectable="0">
          <mxGeometry width="30" height="30" as="geometry" />
        </mxCell>
        <mxCell id="2e49270ec7c68f3f-83" value="payment_id" style="shape=partialRectangle;top=0;left=0;right=0;bottom=0;html=1;align=left;verticalAlign=top;fillColor=none;spacingLeft=34;spacingRight=4;whiteSpace=wrap;overflow=hidden;rotatable=0;points=[[0,0.5],[1,0.5]];portConstraint=eastwest;dropTarget=0;" parent="2e49270ec7c68f3f-80" vertex="1">
          <mxGeometry y="56" width="400" height="26" as="geometry" />
        </mxCell>
        <mxCell id="2e49270ec7c68f3f-84" value="" style="shape=partialRectangle;top=0;left=0;bottom=0;html=1;fillColor=none;align=left;verticalAlign=top;spacingLeft=4;spacingRight=4;whiteSpace=wrap;overflow=hidden;rotatable=0;points=[];portConstraint=eastwest;part=1;" parent="2e49270ec7c68f3f-83" vertex="1" connectable="0">
          <mxGeometry width="30" height="26" as="geometry" />
        </mxCell>
        <mxCell id="2e49270ec7c68f3f-85" value="payment_token_id" style="shape=partialRectangle;top=0;left=0;right=0;bottom=0;html=1;align=left;verticalAlign=top;fillColor=none;spacingLeft=34;spacingRight=4;whiteSpace=wrap;overflow=hidden;rotatable=0;points=[[0,0.5],[1,0.5]];portConstraint=eastwest;dropTarget=0;fontStyle=1" parent="2e49270ec7c68f3f-80" vertex="1">
          <mxGeometry y="82" width="400" height="26" as="geometry" />
        </mxCell>
        <mxCell id="2e49270ec7c68f3f-86" value="*" style="shape=partialRectangle;top=0;left=0;bottom=0;html=1;fillColor=none;align=left;verticalAlign=top;spacingLeft=4;spacingRight=4;whiteSpace=wrap;overflow=hidden;rotatable=0;points=[];portConstraint=eastwest;part=1;" parent="2e49270ec7c68f3f-85" vertex="1" connectable="0">
          <mxGeometry width="30" height="26" as="geometry" />
        </mxCell>
        <mxCell id="VDMEnBiIt8bDcIozuHvG-102" value="external_ticket_id" style="shape=partialRectangle;top=0;left=0;right=0;bottom=0;html=1;align=left;verticalAlign=top;fillColor=none;spacingLeft=34;spacingRight=4;whiteSpace=wrap;overflow=hidden;rotatable=0;points=[[0,0.5],[1,0.5]];portConstraint=eastwest;dropTarget=0;fontStyle=1" vertex="1" parent="2e49270ec7c68f3f-80">
          <mxGeometry y="108" width="400" height="26" as="geometry" />
        </mxCell>
        <mxCell id="VDMEnBiIt8bDcIozuHvG-103" value="*" style="shape=partialRectangle;top=0;left=0;bottom=0;html=1;fillColor=none;align=left;verticalAlign=top;spacingLeft=4;spacingRight=4;whiteSpace=wrap;overflow=hidden;rotatable=0;points=[];portConstraint=eastwest;part=1;" vertex="1" connectable="0" parent="VDMEnBiIt8bDcIozuHvG-102">
          <mxGeometry width="30" height="26" as="geometry" />
        </mxCell>
        <mxCell id="2e49270ec7c68f3f-87" value="conversation_created_at" style="shape=partialRectangle;top=0;left=0;right=0;bottom=0;html=1;align=left;verticalAlign=top;fillColor=none;spacingLeft=34;spacingRight=4;whiteSpace=wrap;overflow=hidden;rotatable=0;points=[[0,0.5],[1,0.5]];portConstraint=eastwest;dropTarget=0;" parent="2e49270ec7c68f3f-80" vertex="1">
          <mxGeometry y="134" width="400" height="26" as="geometry" />
        </mxCell>
        <mxCell id="2e49270ec7c68f3f-88" value="" style="shape=partialRectangle;top=0;left=0;bottom=0;html=1;fillColor=none;align=left;verticalAlign=top;spacingLeft=4;spacingRight=4;whiteSpace=wrap;overflow=hidden;rotatable=0;points=[];portConstraint=eastwest;part=1;" parent="2e49270ec7c68f3f-87" vertex="1" connectable="0">
          <mxGeometry width="30" height="26" as="geometry" />
        </mxCell>
        <mxCell id="VDMEnBiIt8bDcIozuHvG-3" value="conversation_created_at_date" style="shape=partialRectangle;top=0;left=0;right=0;bottom=0;html=1;align=left;verticalAlign=top;fillColor=none;spacingLeft=34;spacingRight=4;whiteSpace=wrap;overflow=hidden;rotatable=0;points=[[0,0.5],[1,0.5]];portConstraint=eastwest;dropTarget=0;" vertex="1" parent="2e49270ec7c68f3f-80">
          <mxGeometry y="160" width="400" height="26" as="geometry" />
        </mxCell>
        <mxCell id="VDMEnBiIt8bDcIozuHvG-4" value="" style="shape=partialRectangle;top=0;left=0;bottom=0;html=1;fillColor=none;align=left;verticalAlign=top;spacingLeft=4;spacingRight=4;whiteSpace=wrap;overflow=hidden;rotatable=0;points=[];portConstraint=eastwest;part=1;" vertex="1" connectable="0" parent="VDMEnBiIt8bDcIozuHvG-3">
          <mxGeometry width="30" height="26" as="geometry" />
        </mxCell>
        <mxCell id="VDMEnBiIt8bDcIozuHvG-5" value="channel" style="shape=partialRectangle;top=0;left=0;right=0;bottom=0;html=1;align=left;verticalAlign=top;fillColor=none;spacingLeft=34;spacingRight=4;whiteSpace=wrap;overflow=hidden;rotatable=0;points=[[0,0.5],[1,0.5]];portConstraint=eastwest;dropTarget=0;" vertex="1" parent="2e49270ec7c68f3f-80">
          <mxGeometry y="186" width="400" height="26" as="geometry" />
        </mxCell>
        <mxCell id="VDMEnBiIt8bDcIozuHvG-6" value="" style="shape=partialRectangle;top=0;left=0;bottom=0;html=1;fillColor=none;align=left;verticalAlign=top;spacingLeft=4;spacingRight=4;whiteSpace=wrap;overflow=hidden;rotatable=0;points=[];portConstraint=eastwest;part=1;" vertex="1" connectable="0" parent="VDMEnBiIt8bDcIozuHvG-5">
          <mxGeometry width="30" height="26" as="geometry" />
        </mxCell>
        <mxCell id="VDMEnBiIt8bDcIozuHvG-9" value="assignee_id" style="shape=partialRectangle;top=0;left=0;right=0;bottom=0;html=1;align=left;verticalAlign=top;fillColor=none;spacingLeft=34;spacingRight=4;whiteSpace=wrap;overflow=hidden;rotatable=0;points=[[0,0.5],[1,0.5]];portConstraint=eastwest;dropTarget=0;" vertex="1" parent="2e49270ec7c68f3f-80">
          <mxGeometry y="212" width="400" height="26" as="geometry" />
        </mxCell>
        <mxCell id="VDMEnBiIt8bDcIozuHvG-10" value="" style="shape=partialRectangle;top=0;left=0;bottom=0;html=1;fillColor=none;align=left;verticalAlign=top;spacingLeft=4;spacingRight=4;whiteSpace=wrap;overflow=hidden;rotatable=0;points=[];portConstraint=eastwest;part=1;" vertex="1" connectable="0" parent="VDMEnBiIt8bDcIozuHvG-9">
          <mxGeometry width="30" height="26" as="geometry" />
        </mxCell>
        <mxCell id="VDMEnBiIt8bDcIozuHvG-11" value="updated_at" style="shape=partialRectangle;top=0;left=0;right=0;bottom=0;html=1;align=left;verticalAlign=top;fillColor=none;spacingLeft=34;spacingRight=4;whiteSpace=wrap;overflow=hidden;rotatable=0;points=[[0,0.5],[1,0.5]];portConstraint=eastwest;dropTarget=0;" vertex="1" parent="2e49270ec7c68f3f-80">
          <mxGeometry y="238" width="400" height="26" as="geometry" />
        </mxCell>
        <mxCell id="VDMEnBiIt8bDcIozuHvG-12" value="" style="shape=partialRectangle;top=0;left=0;bottom=0;html=1;fillColor=none;align=left;verticalAlign=top;spacingLeft=4;spacingRight=4;whiteSpace=wrap;overflow=hidden;rotatable=0;points=[];portConstraint=eastwest;part=1;" vertex="1" connectable="0" parent="VDMEnBiIt8bDcIozuHvG-11">
          <mxGeometry width="30" height="26" as="geometry" />
        </mxCell>
        <mxCell id="VDMEnBiIt8bDcIozuHvG-7" value="closed_at" style="shape=partialRectangle;top=0;left=0;right=0;bottom=0;html=1;align=left;verticalAlign=top;fillColor=none;spacingLeft=34;spacingRight=4;whiteSpace=wrap;overflow=hidden;rotatable=0;points=[[0,0.5],[1,0.5]];portConstraint=eastwest;dropTarget=0;" vertex="1" parent="2e49270ec7c68f3f-80">
          <mxGeometry y="264" width="400" height="26" as="geometry" />
        </mxCell>
        <mxCell id="VDMEnBiIt8bDcIozuHvG-8" value="" style="shape=partialRectangle;top=0;left=0;bottom=0;html=1;fillColor=none;align=left;verticalAlign=top;spacingLeft=4;spacingRight=4;whiteSpace=wrap;overflow=hidden;rotatable=0;points=[];portConstraint=eastwest;part=1;" vertex="1" connectable="0" parent="VDMEnBiIt8bDcIozuHvG-7">
          <mxGeometry width="30" height="26" as="geometry" />
        </mxCell>
        <mxCell id="VDMEnBiIt8bDcIozuHvG-13" value="message_count" style="shape=partialRectangle;top=0;left=0;right=0;bottom=0;html=1;align=left;verticalAlign=top;fillColor=none;spacingLeft=34;spacingRight=4;whiteSpace=wrap;overflow=hidden;rotatable=0;points=[[0,0.5],[1,0.5]];portConstraint=eastwest;dropTarget=0;" vertex="1" parent="2e49270ec7c68f3f-80">
          <mxGeometry y="290" width="400" height="26" as="geometry" />
        </mxCell>
        <mxCell id="VDMEnBiIt8bDcIozuHvG-14" value="" style="shape=partialRectangle;top=0;left=0;bottom=0;html=1;fillColor=none;align=left;verticalAlign=top;spacingLeft=4;spacingRight=4;whiteSpace=wrap;overflow=hidden;rotatable=0;points=[];portConstraint=eastwest;part=1;" vertex="1" connectable="0" parent="VDMEnBiIt8bDcIozuHvG-13">
          <mxGeometry width="30" height="26" as="geometry" />
        </mxCell>
        <mxCell id="VDMEnBiIt8bDcIozuHvG-15" value="last_reply_at" style="shape=partialRectangle;top=0;left=0;right=0;bottom=0;html=1;align=left;verticalAlign=top;fillColor=none;spacingLeft=34;spacingRight=4;whiteSpace=wrap;overflow=hidden;rotatable=0;points=[[0,0.5],[1,0.5]];portConstraint=eastwest;dropTarget=0;" vertex="1" parent="2e49270ec7c68f3f-80">
          <mxGeometry y="316" width="400" height="26" as="geometry" />
        </mxCell>
        <mxCell id="VDMEnBiIt8bDcIozuHvG-16" value="" style="shape=partialRectangle;top=0;left=0;bottom=0;html=1;fillColor=none;align=left;verticalAlign=top;spacingLeft=4;spacingRight=4;whiteSpace=wrap;overflow=hidden;rotatable=0;points=[];portConstraint=eastwest;part=1;" vertex="1" connectable="0" parent="VDMEnBiIt8bDcIozuHvG-15">
          <mxGeometry width="30" height="26" as="geometry" />
        </mxCell>
        <mxCell id="VDMEnBiIt8bDcIozuHvG-17" value="language" style="shape=partialRectangle;top=0;left=0;right=0;bottom=0;html=1;align=left;verticalAlign=top;fillColor=none;spacingLeft=34;spacingRight=4;whiteSpace=wrap;overflow=hidden;rotatable=0;points=[[0,0.5],[1,0.5]];portConstraint=eastwest;dropTarget=0;" vertex="1" parent="2e49270ec7c68f3f-80">
          <mxGeometry y="342" width="400" height="26" as="geometry" />
        </mxCell>
        <mxCell id="VDMEnBiIt8bDcIozuHvG-18" value="" style="shape=partialRectangle;top=0;left=0;bottom=0;html=1;fillColor=none;align=left;verticalAlign=top;spacingLeft=4;spacingRight=4;whiteSpace=wrap;overflow=hidden;rotatable=0;points=[];portConstraint=eastwest;part=1;" vertex="1" connectable="0" parent="VDMEnBiIt8bDcIozuHvG-17">
          <mxGeometry width="30" height="26" as="geometry" />
        </mxCell>
        <mxCell id="VDMEnBiIt8bDcIozuHvG-19" value="imported_at" style="shape=partialRectangle;top=0;left=0;right=0;bottom=0;html=1;align=left;verticalAlign=top;fillColor=none;spacingLeft=34;spacingRight=4;whiteSpace=wrap;overflow=hidden;rotatable=0;points=[[0,0.5],[1,0.5]];portConstraint=eastwest;dropTarget=0;" vertex="1" parent="2e49270ec7c68f3f-80">
          <mxGeometry y="368" width="400" height="26" as="geometry" />
        </mxCell>
        <mxCell id="VDMEnBiIt8bDcIozuHvG-20" value="" style="shape=partialRectangle;top=0;left=0;bottom=0;html=1;fillColor=none;align=left;verticalAlign=top;spacingLeft=4;spacingRight=4;whiteSpace=wrap;overflow=hidden;rotatable=0;points=[];portConstraint=eastwest;part=1;" vertex="1" connectable="0" parent="VDMEnBiIt8bDcIozuHvG-19">
          <mxGeometry width="30" height="26" as="geometry" />
        </mxCell>
        <mxCell id="VDMEnBiIt8bDcIozuHvG-21" value="unique_public_agent_count" style="shape=partialRectangle;top=0;left=0;right=0;bottom=0;html=1;align=left;verticalAlign=top;fillColor=none;spacingLeft=34;spacingRight=4;whiteSpace=wrap;overflow=hidden;rotatable=0;points=[[0,0.5],[1,0.5]];portConstraint=eastwest;dropTarget=0;" vertex="1" parent="2e49270ec7c68f3f-80">
          <mxGeometry y="394" width="400" height="26" as="geometry" />
        </mxCell>
        <mxCell id="VDMEnBiIt8bDcIozuHvG-22" value="" style="shape=partialRectangle;top=0;left=0;bottom=0;html=1;fillColor=none;align=left;verticalAlign=top;spacingLeft=4;spacingRight=4;whiteSpace=wrap;overflow=hidden;rotatable=0;points=[];portConstraint=eastwest;part=1;" vertex="1" connectable="0" parent="VDMEnBiIt8bDcIozuHvG-21">
          <mxGeometry width="30" height="26" as="geometry" />
        </mxCell>
        <mxCell id="VDMEnBiIt8bDcIozuHvG-23" value="public_mean_character_count" style="shape=partialRectangle;top=0;left=0;right=0;bottom=0;html=1;align=left;verticalAlign=top;fillColor=none;spacingLeft=34;spacingRight=4;whiteSpace=wrap;overflow=hidden;rotatable=0;points=[[0,0.5],[1,0.5]];portConstraint=eastwest;dropTarget=0;" vertex="1" parent="2e49270ec7c68f3f-80">
          <mxGeometry y="420" width="400" height="26" as="geometry" />
        </mxCell>
        <mxCell id="VDMEnBiIt8bDcIozuHvG-24" value="" style="shape=partialRectangle;top=0;left=0;bottom=0;html=1;fillColor=none;align=left;verticalAlign=top;spacingLeft=4;spacingRight=4;whiteSpace=wrap;overflow=hidden;rotatable=0;points=[];portConstraint=eastwest;part=1;" vertex="1" connectable="0" parent="VDMEnBiIt8bDcIozuHvG-23">
          <mxGeometry width="30" height="26" as="geometry" />
        </mxCell>
        <mxCell id="VDMEnBiIt8bDcIozuHvG-25" value="public_mean_word_count" style="shape=partialRectangle;top=0;left=0;right=0;bottom=0;html=1;align=left;verticalAlign=top;fillColor=none;spacingLeft=34;spacingRight=4;whiteSpace=wrap;overflow=hidden;rotatable=0;points=[[0,0.5],[1,0.5]];portConstraint=eastwest;dropTarget=0;" vertex="1" parent="2e49270ec7c68f3f-80">
          <mxGeometry y="446" width="400" height="26" as="geometry" />
        </mxCell>
        <mxCell id="VDMEnBiIt8bDcIozuHvG-26" value="" style="shape=partialRectangle;top=0;left=0;bottom=0;html=1;fillColor=none;align=left;verticalAlign=top;spacingLeft=4;spacingRight=4;whiteSpace=wrap;overflow=hidden;rotatable=0;points=[];portConstraint=eastwest;part=1;" vertex="1" connectable="0" parent="VDMEnBiIt8bDcIozuHvG-25">
          <mxGeometry width="30" height="26" as="geometry" />
        </mxCell>
        <mxCell id="VDMEnBiIt8bDcIozuHvG-27" value="private_message_count" style="shape=partialRectangle;top=0;left=0;right=0;bottom=0;html=1;align=left;verticalAlign=top;fillColor=none;spacingLeft=34;spacingRight=4;whiteSpace=wrap;overflow=hidden;rotatable=0;points=[[0,0.5],[1,0.5]];portConstraint=eastwest;dropTarget=0;" vertex="1" parent="2e49270ec7c68f3f-80">
          <mxGeometry y="472" width="400" height="26" as="geometry" />
        </mxCell>
        <mxCell id="VDMEnBiIt8bDcIozuHvG-28" value="" style="shape=partialRectangle;top=0;left=0;bottom=0;html=1;fillColor=none;align=left;verticalAlign=top;spacingLeft=4;spacingRight=4;whiteSpace=wrap;overflow=hidden;rotatable=0;points=[];portConstraint=eastwest;part=1;" vertex="1" connectable="0" parent="VDMEnBiIt8bDcIozuHvG-27">
          <mxGeometry width="30" height="26" as="geometry" />
        </mxCell>
        <mxCell id="VDMEnBiIt8bDcIozuHvG-29" value="public_message_count" style="shape=partialRectangle;top=0;left=0;right=0;bottom=0;html=1;align=left;verticalAlign=top;fillColor=none;spacingLeft=34;spacingRight=4;whiteSpace=wrap;overflow=hidden;rotatable=0;points=[[0,0.5],[1,0.5]];portConstraint=eastwest;dropTarget=0;" vertex="1" parent="2e49270ec7c68f3f-80">
          <mxGeometry y="498" width="400" height="26" as="geometry" />
        </mxCell>
        <mxCell id="VDMEnBiIt8bDcIozuHvG-30" value="" style="shape=partialRectangle;top=0;left=0;bottom=0;html=1;fillColor=none;align=left;verticalAlign=top;spacingLeft=4;spacingRight=4;whiteSpace=wrap;overflow=hidden;rotatable=0;points=[];portConstraint=eastwest;part=1;" vertex="1" connectable="0" parent="VDMEnBiIt8bDcIozuHvG-29">
          <mxGeometry width="30" height="26" as="geometry" />
        </mxCell>
        <mxCell id="VDMEnBiIt8bDcIozuHvG-31" value="klaus_sentiment" style="shape=partialRectangle;top=0;left=0;right=0;bottom=0;html=1;align=left;verticalAlign=top;fillColor=none;spacingLeft=34;spacingRight=4;whiteSpace=wrap;overflow=hidden;rotatable=0;points=[[0,0.5],[1,0.5]];portConstraint=eastwest;dropTarget=0;" vertex="1" parent="2e49270ec7c68f3f-80">
          <mxGeometry y="524" width="400" height="26" as="geometry" />
        </mxCell>
        <mxCell id="VDMEnBiIt8bDcIozuHvG-32" value="" style="shape=partialRectangle;top=0;left=0;bottom=0;html=1;fillColor=none;align=left;verticalAlign=top;spacingLeft=4;spacingRight=4;whiteSpace=wrap;overflow=hidden;rotatable=0;points=[];portConstraint=eastwest;part=1;" vertex="1" connectable="0" parent="VDMEnBiIt8bDcIozuHvG-31">
          <mxGeometry width="30" height="26" as="geometry" />
        </mxCell>
        <mxCell id="VDMEnBiIt8bDcIozuHvG-33" value="is_closed" style="shape=partialRectangle;top=0;left=0;right=0;bottom=0;html=1;align=left;verticalAlign=top;fillColor=none;spacingLeft=34;spacingRight=4;whiteSpace=wrap;overflow=hidden;rotatable=0;points=[[0,0.5],[1,0.5]];portConstraint=eastwest;dropTarget=0;" vertex="1" parent="2e49270ec7c68f3f-80">
          <mxGeometry y="550" width="400" height="26" as="geometry" />
        </mxCell>
        <mxCell id="VDMEnBiIt8bDcIozuHvG-34" value="" style="shape=partialRectangle;top=0;left=0;bottom=0;html=1;fillColor=none;align=left;verticalAlign=top;spacingLeft=4;spacingRight=4;whiteSpace=wrap;overflow=hidden;rotatable=0;points=[];portConstraint=eastwest;part=1;" vertex="1" connectable="0" parent="VDMEnBiIt8bDcIozuHvG-33">
          <mxGeometry width="30" height="26" as="geometry" />
        </mxCell>
        <mxCell id="VDMEnBiIt8bDcIozuHvG-35" value="agent_most_public_messages" style="shape=partialRectangle;top=0;left=0;right=0;bottom=0;html=1;align=left;verticalAlign=top;fillColor=none;spacingLeft=34;spacingRight=4;whiteSpace=wrap;overflow=hidden;rotatable=0;points=[[0,0.5],[1,0.5]];portConstraint=eastwest;dropTarget=0;" vertex="1" parent="2e49270ec7c68f3f-80">
          <mxGeometry y="576" width="400" height="26" as="geometry" />
        </mxCell>
        <mxCell id="VDMEnBiIt8bDcIozuHvG-36" value="" style="shape=partialRectangle;top=0;left=0;bottom=0;html=1;fillColor=none;align=left;verticalAlign=top;spacingLeft=4;spacingRight=4;whiteSpace=wrap;overflow=hidden;rotatable=0;points=[];portConstraint=eastwest;part=1;" vertex="1" connectable="0" parent="VDMEnBiIt8bDcIozuHvG-35">
          <mxGeometry width="30" height="26" as="geometry" />
        </mxCell>
        <mxCell id="VDMEnBiIt8bDcIozuHvG-37" value="first_response_time" style="shape=partialRectangle;top=0;left=0;right=0;bottom=0;html=1;align=left;verticalAlign=top;fillColor=none;spacingLeft=34;spacingRight=4;whiteSpace=wrap;overflow=hidden;rotatable=0;points=[[0,0.5],[1,0.5]];portConstraint=eastwest;dropTarget=0;" vertex="1" parent="2e49270ec7c68f3f-80">
          <mxGeometry y="602" width="400" height="26" as="geometry" />
        </mxCell>
        <mxCell id="VDMEnBiIt8bDcIozuHvG-38" value="" style="shape=partialRectangle;top=0;left=0;bottom=0;html=1;fillColor=none;align=left;verticalAlign=top;spacingLeft=4;spacingRight=4;whiteSpace=wrap;overflow=hidden;rotatable=0;points=[];portConstraint=eastwest;part=1;" vertex="1" connectable="0" parent="VDMEnBiIt8bDcIozuHvG-37">
          <mxGeometry width="30" height="26" as="geometry" />
        </mxCell>
        <mxCell id="VDMEnBiIt8bDcIozuHvG-39" value="first_resolution_time_seconds" style="shape=partialRectangle;top=0;left=0;right=0;bottom=0;html=1;align=left;verticalAlign=top;fillColor=none;spacingLeft=34;spacingRight=4;whiteSpace=wrap;overflow=hidden;rotatable=0;points=[[0,0.5],[1,0.5]];portConstraint=eastwest;dropTarget=0;" vertex="1" parent="2e49270ec7c68f3f-80">
          <mxGeometry y="628" width="400" height="26" as="geometry" />
        </mxCell>
        <mxCell id="VDMEnBiIt8bDcIozuHvG-40" value="" style="shape=partialRectangle;top=0;left=0;bottom=0;html=1;fillColor=none;align=left;verticalAlign=top;spacingLeft=4;spacingRight=4;whiteSpace=wrap;overflow=hidden;rotatable=0;points=[];portConstraint=eastwest;part=1;" vertex="1" connectable="0" parent="VDMEnBiIt8bDcIozuHvG-39">
          <mxGeometry width="30" height="26" as="geometry" />
        </mxCell>
        <mxCell id="VDMEnBiIt8bDcIozuHvG-41" value="full_resolution_time_seconds" style="shape=partialRectangle;top=0;left=0;right=0;bottom=0;html=1;align=left;verticalAlign=top;fillColor=none;spacingLeft=34;spacingRight=4;whiteSpace=wrap;overflow=hidden;rotatable=0;points=[[0,0.5],[1,0.5]];portConstraint=eastwest;dropTarget=0;" vertex="1" parent="2e49270ec7c68f3f-80">
          <mxGeometry y="654" width="400" height="26" as="geometry" />
        </mxCell>
        <mxCell id="VDMEnBiIt8bDcIozuHvG-42" value="" style="shape=partialRectangle;top=0;left=0;bottom=0;html=1;fillColor=none;align=left;verticalAlign=top;spacingLeft=4;spacingRight=4;whiteSpace=wrap;overflow=hidden;rotatable=0;points=[];portConstraint=eastwest;part=1;" vertex="1" connectable="0" parent="VDMEnBiIt8bDcIozuHvG-41">
          <mxGeometry width="30" height="26" as="geometry" />
        </mxCell>
        <mxCell id="VDMEnBiIt8bDcIozuHvG-43" value="most_active_internal_user_id" style="shape=partialRectangle;top=0;left=0;right=0;bottom=0;html=1;align=left;verticalAlign=top;fillColor=none;spacingLeft=34;spacingRight=4;whiteSpace=wrap;overflow=hidden;rotatable=0;points=[[0,0.5],[1,0.5]];portConstraint=eastwest;dropTarget=0;" vertex="1" parent="2e49270ec7c68f3f-80">
          <mxGeometry y="680" width="400" height="26" as="geometry" />
        </mxCell>
        <mxCell id="VDMEnBiIt8bDcIozuHvG-44" value="" style="shape=partialRectangle;top=0;left=0;bottom=0;html=1;fillColor=none;align=left;verticalAlign=top;spacingLeft=4;spacingRight=4;whiteSpace=wrap;overflow=hidden;rotatable=0;points=[];portConstraint=eastwest;part=1;" vertex="1" connectable="0" parent="VDMEnBiIt8bDcIozuHvG-43">
          <mxGeometry width="30" height="26" as="geometry" />
        </mxCell>
        <mxCell id="VDMEnBiIt8bDcIozuHvG-45" value="deleted_at" style="shape=partialRectangle;top=0;left=0;right=0;bottom=0;html=1;align=left;verticalAlign=top;fillColor=none;spacingLeft=34;spacingRight=4;whiteSpace=wrap;overflow=hidden;rotatable=0;points=[[0,0.5],[1,0.5]];portConstraint=eastwest;dropTarget=0;" vertex="1" parent="2e49270ec7c68f3f-80">
          <mxGeometry y="706" width="400" height="26" as="geometry" />
        </mxCell>
        <mxCell id="VDMEnBiIt8bDcIozuHvG-46" value="" style="shape=partialRectangle;top=0;left=0;bottom=0;html=1;fillColor=none;align=left;verticalAlign=top;spacingLeft=4;spacingRight=4;whiteSpace=wrap;overflow=hidden;rotatable=0;points=[];portConstraint=eastwest;part=1;" vertex="1" connectable="0" parent="VDMEnBiIt8bDcIozuHvG-45">
          <mxGeometry width="30" height="26" as="geometry" />
        </mxCell>
        <mxCell id="VDMEnBiIt8bDcIozuHvG-105" value="&lt;div&gt;Table doesn&#39;t contain a unique field.&lt;/div&gt;Creating a composite primary key&amp;nbsp;&lt;div&gt;out of existing fields.&lt;/div&gt;" style="ellipse;shape=cloud;whiteSpace=wrap;html=1;spacingLeft=0;" vertex="1" parent="1">
          <mxGeometry x="-250" y="190" width="280" height="140" as="geometry" />
        </mxCell>
        <mxCell id="VDMEnBiIt8bDcIozuHvG-108" style="edgeStyle=orthogonalEdgeStyle;rounded=0;orthogonalLoop=1;jettySize=auto;html=1;entryX=0.525;entryY=0.002;entryDx=0;entryDy=0;entryPerimeter=0;" edge="1" parent="1" source="VDMEnBiIt8bDcIozuHvG-105" target="2e49270ec7c68f3f-80">
          <mxGeometry relative="1" as="geometry" />
        </mxCell>
        <mxCell id="VDMEnBiIt8bDcIozuHvG-110" value="Manual Reviews" style="swimlane;html=1;fontStyle=0;childLayout=stackLayout;horizontal=1;startSize=26;fillColor=#e0e0e0;horizontalStack=0;resizeParent=1;resizeLast=0;collapsible=1;marginBottom=0;swimlaneFillColor=#ffffff;align=center;rounded=0;shadow=0;comic=0;labelBackgroundColor=none;strokeWidth=1;fontFamily=Verdana;fontSize=14;swimlaneLine=0;" vertex="1" parent="1">
          <mxGeometry x="-760" y="360" width="240" height="580" as="geometry" />
        </mxCell>
        <mxCell id="VDMEnBiIt8bDcIozuHvG-111" value="review_id" style="shape=partialRectangle;top=0;left=0;right=0;bottom=0;html=1;align=left;verticalAlign=middle;fillColor=none;spacingLeft=60;spacingRight=4;whiteSpace=wrap;overflow=hidden;rotatable=0;points=[[0,0.5],[1,0.5]];portConstraint=eastwest;dropTarget=0;fontStyle=5;swimlaneLine=0;" vertex="1" parent="VDMEnBiIt8bDcIozuHvG-110">
          <mxGeometry y="26" width="240" height="30" as="geometry" />
        </mxCell>
        <mxCell id="VDMEnBiIt8bDcIozuHvG-112" value="PK, FK2" style="shape=partialRectangle;fontStyle=1;top=0;left=0;bottom=0;html=1;fillColor=none;align=left;verticalAlign=middle;spacingLeft=4;spacingRight=4;whiteSpace=wrap;overflow=hidden;rotatable=0;points=[];portConstraint=eastwest;part=1;swimlaneLine=0;" vertex="1" connectable="0" parent="VDMEnBiIt8bDcIozuHvG-111">
          <mxGeometry width="56" height="30" as="geometry" />
        </mxCell>
        <mxCell id="VDMEnBiIt8bDcIozuHvG-115" value="payment_id" style="shape=partialRectangle;top=1;left=0;right=0;bottom=0;html=1;align=left;verticalAlign=top;fillColor=none;spacingLeft=60;spacingRight=4;whiteSpace=wrap;overflow=hidden;rotatable=0;points=[[0,0.5],[1,0.5]];portConstraint=eastwest;dropTarget=0;" vertex="1" parent="VDMEnBiIt8bDcIozuHvG-110">
          <mxGeometry y="56" width="240" height="26" as="geometry" />
        </mxCell>
        <mxCell id="VDMEnBiIt8bDcIozuHvG-116" value="" style="shape=partialRectangle;top=0;left=0;bottom=0;html=1;fillColor=none;align=left;verticalAlign=top;spacingLeft=4;spacingRight=4;whiteSpace=wrap;overflow=hidden;rotatable=0;points=[];portConstraint=eastwest;part=1;" vertex="1" connectable="0" parent="VDMEnBiIt8bDcIozuHvG-115">
          <mxGeometry width="56" height="26" as="geometry" />
        </mxCell>
        <mxCell id="4zKfhWnxIO-Xe_y0Ikxf-35" value="payment_token_id" style="shape=partialRectangle;top=0;left=0;right=0;bottom=0;html=1;align=left;verticalAlign=top;fillColor=none;spacingLeft=60;spacingRight=4;whiteSpace=wrap;overflow=hidden;rotatable=0;points=[[0,0.5],[1,0.5]];portConstraint=eastwest;dropTarget=0;" vertex="1" parent="VDMEnBiIt8bDcIozuHvG-110">
          <mxGeometry y="82" width="240" height="26" as="geometry" />
        </mxCell>
        <mxCell id="4zKfhWnxIO-Xe_y0Ikxf-36" value="" style="shape=partialRectangle;top=0;left=0;bottom=0;html=1;fillColor=none;align=left;verticalAlign=top;spacingLeft=4;spacingRight=4;whiteSpace=wrap;overflow=hidden;rotatable=0;points=[];portConstraint=eastwest;part=1;" vertex="1" connectable="0" parent="4zKfhWnxIO-Xe_y0Ikxf-35">
          <mxGeometry width="56" height="26" as="geometry" />
        </mxCell>
        <mxCell id="VDMEnBiIt8bDcIozuHvG-124" value="conversation_created_at" style="shape=partialRectangle;top=0;left=0;right=0;bottom=0;html=1;align=left;verticalAlign=top;fillColor=none;spacingLeft=60;spacingRight=4;whiteSpace=wrap;overflow=hidden;rotatable=0;points=[[0,0.5],[1,0.5]];portConstraint=eastwest;dropTarget=0;" vertex="1" parent="VDMEnBiIt8bDcIozuHvG-110">
          <mxGeometry y="108" width="240" height="26" as="geometry" />
        </mxCell>
        <mxCell id="VDMEnBiIt8bDcIozuHvG-125" value="" style="shape=partialRectangle;top=0;left=0;bottom=0;html=1;fillColor=none;align=left;verticalAlign=top;spacingLeft=4;spacingRight=4;whiteSpace=wrap;overflow=hidden;rotatable=0;points=[];portConstraint=eastwest;part=1;" vertex="1" connectable="0" parent="VDMEnBiIt8bDcIozuHvG-124">
          <mxGeometry width="56" height="26" as="geometry" />
        </mxCell>
        <mxCell id="VDMEnBiIt8bDcIozuHvG-126" value="conversation_created_date" style="shape=partialRectangle;top=0;left=0;right=0;bottom=0;html=1;align=left;verticalAlign=top;fillColor=none;spacingLeft=60;spacingRight=4;whiteSpace=wrap;overflow=hidden;rotatable=0;points=[[0,0.5],[1,0.5]];portConstraint=eastwest;dropTarget=0;" vertex="1" parent="VDMEnBiIt8bDcIozuHvG-110">
          <mxGeometry y="134" width="240" height="26" as="geometry" />
        </mxCell>
        <mxCell id="VDMEnBiIt8bDcIozuHvG-127" value="" style="shape=partialRectangle;top=0;left=0;bottom=0;html=1;fillColor=none;align=left;verticalAlign=top;spacingLeft=4;spacingRight=4;whiteSpace=wrap;overflow=hidden;rotatable=0;points=[];portConstraint=eastwest;part=1;" vertex="1" connectable="0" parent="VDMEnBiIt8bDcIozuHvG-126">
          <mxGeometry width="56" height="26" as="geometry" />
        </mxCell>
        <mxCell id="VDMEnBiIt8bDcIozuHvG-129" value="conversation_external_id" style="shape=partialRectangle;top=0;left=0;right=0;bottom=0;html=1;align=left;verticalAlign=top;fillColor=none;spacingLeft=60;spacingRight=4;whiteSpace=wrap;overflow=hidden;rotatable=0;points=[[0,0.5],[1,0.5]];portConstraint=eastwest;dropTarget=0;fontStyle=1" vertex="1" parent="VDMEnBiIt8bDcIozuHvG-110">
          <mxGeometry y="160" width="240" height="26" as="geometry" />
        </mxCell>
        <mxCell id="VDMEnBiIt8bDcIozuHvG-130" value="&lt;b&gt;FK1&lt;/b&gt;" style="shape=partialRectangle;top=0;left=0;bottom=0;html=1;fillColor=none;align=left;verticalAlign=top;spacingLeft=4;spacingRight=4;whiteSpace=wrap;overflow=hidden;rotatable=0;points=[];portConstraint=eastwest;part=1;" vertex="1" connectable="0" parent="VDMEnBiIt8bDcIozuHvG-129">
          <mxGeometry width="56" height="26" as="geometry" />
        </mxCell>
        <mxCell id="VDMEnBiIt8bDcIozuHvG-131" value="team_id" style="shape=partialRectangle;top=0;left=0;right=0;bottom=0;html=1;align=left;verticalAlign=top;fillColor=none;spacingLeft=60;spacingRight=4;whiteSpace=wrap;overflow=hidden;rotatable=0;points=[[0,0.5],[1,0.5]];portConstraint=eastwest;dropTarget=0;" vertex="1" parent="VDMEnBiIt8bDcIozuHvG-110">
          <mxGeometry y="186" width="240" height="26" as="geometry" />
        </mxCell>
        <mxCell id="VDMEnBiIt8bDcIozuHvG-132" value="" style="shape=partialRectangle;top=0;left=0;bottom=0;html=1;fillColor=none;align=left;verticalAlign=top;spacingLeft=4;spacingRight=4;whiteSpace=wrap;overflow=hidden;rotatable=0;points=[];portConstraint=eastwest;part=1;" vertex="1" connectable="0" parent="VDMEnBiIt8bDcIozuHvG-131">
          <mxGeometry width="56" height="26" as="geometry" />
        </mxCell>
        <mxCell id="VDMEnBiIt8bDcIozuHvG-133" value="reviewer_id" style="shape=partialRectangle;top=0;left=0;right=0;bottom=0;html=1;align=left;verticalAlign=top;fillColor=none;spacingLeft=60;spacingRight=4;whiteSpace=wrap;overflow=hidden;rotatable=0;points=[[0,0.5],[1,0.5]];portConstraint=eastwest;dropTarget=0;" vertex="1" parent="VDMEnBiIt8bDcIozuHvG-110">
          <mxGeometry y="212" width="240" height="26" as="geometry" />
        </mxCell>
        <mxCell id="VDMEnBiIt8bDcIozuHvG-134" value="" style="shape=partialRectangle;top=0;left=0;bottom=0;html=1;fillColor=none;align=left;verticalAlign=top;spacingLeft=4;spacingRight=4;whiteSpace=wrap;overflow=hidden;rotatable=0;points=[];portConstraint=eastwest;part=1;" vertex="1" connectable="0" parent="VDMEnBiIt8bDcIozuHvG-133">
          <mxGeometry width="56" height="26" as="geometry" />
        </mxCell>
        <mxCell id="VDMEnBiIt8bDcIozuHvG-135" value="reviewee_id" style="shape=partialRectangle;top=0;left=0;right=0;bottom=0;html=1;align=left;verticalAlign=top;fillColor=none;spacingLeft=60;spacingRight=4;whiteSpace=wrap;overflow=hidden;rotatable=0;points=[[0,0.5],[1,0.5]];portConstraint=eastwest;dropTarget=0;" vertex="1" parent="VDMEnBiIt8bDcIozuHvG-110">
          <mxGeometry y="238" width="240" height="26" as="geometry" />
        </mxCell>
        <mxCell id="VDMEnBiIt8bDcIozuHvG-136" value="" style="shape=partialRectangle;top=0;left=0;bottom=0;html=1;fillColor=none;align=left;verticalAlign=top;spacingLeft=4;spacingRight=4;whiteSpace=wrap;overflow=hidden;rotatable=0;points=[];portConstraint=eastwest;part=1;" vertex="1" connectable="0" parent="VDMEnBiIt8bDcIozuHvG-135">
          <mxGeometry width="56" height="26" as="geometry" />
        </mxCell>
        <mxCell id="VDMEnBiIt8bDcIozuHvG-137" value="comment_id" style="shape=partialRectangle;top=0;left=0;right=0;bottom=0;html=1;align=left;verticalAlign=top;fillColor=none;spacingLeft=60;spacingRight=4;whiteSpace=wrap;overflow=hidden;rotatable=0;points=[[0,0.5],[1,0.5]];portConstraint=eastwest;dropTarget=0;" vertex="1" parent="VDMEnBiIt8bDcIozuHvG-110">
          <mxGeometry y="264" width="240" height="26" as="geometry" />
        </mxCell>
        <mxCell id="VDMEnBiIt8bDcIozuHvG-138" value="" style="shape=partialRectangle;top=0;left=0;bottom=0;html=1;fillColor=none;align=left;verticalAlign=top;spacingLeft=4;spacingRight=4;whiteSpace=wrap;overflow=hidden;rotatable=0;points=[];portConstraint=eastwest;part=1;" vertex="1" connectable="0" parent="VDMEnBiIt8bDcIozuHvG-137">
          <mxGeometry width="56" height="26" as="geometry" />
        </mxCell>
        <mxCell id="VDMEnBiIt8bDcIozuHvG-139" value="scorecard_id" style="shape=partialRectangle;top=0;left=0;right=0;bottom=0;html=1;align=left;verticalAlign=top;fillColor=none;spacingLeft=60;spacingRight=4;whiteSpace=wrap;overflow=hidden;rotatable=0;points=[[0,0.5],[1,0.5]];portConstraint=eastwest;dropTarget=0;" vertex="1" parent="VDMEnBiIt8bDcIozuHvG-110">
          <mxGeometry y="290" width="240" height="26" as="geometry" />
        </mxCell>
        <mxCell id="VDMEnBiIt8bDcIozuHvG-140" value="" style="shape=partialRectangle;top=0;left=0;bottom=0;html=1;fillColor=none;align=left;verticalAlign=top;spacingLeft=4;spacingRight=4;whiteSpace=wrap;overflow=hidden;rotatable=0;points=[];portConstraint=eastwest;part=1;" vertex="1" connectable="0" parent="VDMEnBiIt8bDcIozuHvG-139">
          <mxGeometry width="56" height="26" as="geometry" />
        </mxCell>
        <mxCell id="VDMEnBiIt8bDcIozuHvG-141" value="scorecard_tag" style="shape=partialRectangle;top=0;left=0;right=0;bottom=0;html=1;align=left;verticalAlign=top;fillColor=none;spacingLeft=60;spacingRight=4;whiteSpace=wrap;overflow=hidden;rotatable=0;points=[[0,0.5],[1,0.5]];portConstraint=eastwest;dropTarget=0;" vertex="1" parent="VDMEnBiIt8bDcIozuHvG-110">
          <mxGeometry y="316" width="240" height="26" as="geometry" />
        </mxCell>
        <mxCell id="VDMEnBiIt8bDcIozuHvG-142" value="" style="shape=partialRectangle;top=0;left=0;bottom=0;html=1;fillColor=none;align=left;verticalAlign=top;spacingLeft=4;spacingRight=4;whiteSpace=wrap;overflow=hidden;rotatable=0;points=[];portConstraint=eastwest;part=1;" vertex="1" connectable="0" parent="VDMEnBiIt8bDcIozuHvG-141">
          <mxGeometry width="56" height="26" as="geometry" />
        </mxCell>
        <mxCell id="VDMEnBiIt8bDcIozuHvG-143" value="score" style="shape=partialRectangle;top=0;left=0;right=0;bottom=0;html=1;align=left;verticalAlign=top;fillColor=none;spacingLeft=60;spacingRight=4;whiteSpace=wrap;overflow=hidden;rotatable=0;points=[[0,0.5],[1,0.5]];portConstraint=eastwest;dropTarget=0;" vertex="1" parent="VDMEnBiIt8bDcIozuHvG-110">
          <mxGeometry y="342" width="240" height="26" as="geometry" />
        </mxCell>
        <mxCell id="VDMEnBiIt8bDcIozuHvG-144" value="" style="shape=partialRectangle;top=0;left=0;bottom=0;html=1;fillColor=none;align=left;verticalAlign=top;spacingLeft=4;spacingRight=4;whiteSpace=wrap;overflow=hidden;rotatable=0;points=[];portConstraint=eastwest;part=1;" vertex="1" connectable="0" parent="VDMEnBiIt8bDcIozuHvG-143">
          <mxGeometry width="56" height="26" as="geometry" />
        </mxCell>
        <mxCell id="VDMEnBiIt8bDcIozuHvG-145" value="updated_at" style="shape=partialRectangle;top=0;left=0;right=0;bottom=0;html=1;align=left;verticalAlign=top;fillColor=none;spacingLeft=60;spacingRight=4;whiteSpace=wrap;overflow=hidden;rotatable=0;points=[[0,0.5],[1,0.5]];portConstraint=eastwest;dropTarget=0;" vertex="1" parent="VDMEnBiIt8bDcIozuHvG-110">
          <mxGeometry y="368" width="240" height="24" as="geometry" />
        </mxCell>
        <mxCell id="VDMEnBiIt8bDcIozuHvG-146" value="" style="shape=partialRectangle;top=0;left=0;bottom=0;html=1;fillColor=none;align=left;verticalAlign=top;spacingLeft=4;spacingRight=4;whiteSpace=wrap;overflow=hidden;rotatable=0;points=[];portConstraint=eastwest;part=1;" vertex="1" connectable="0" parent="VDMEnBiIt8bDcIozuHvG-145">
          <mxGeometry width="56" height="24" as="geometry" />
        </mxCell>
        <mxCell id="VDMEnBiIt8bDcIozuHvG-147" value="updated_by" style="shape=partialRectangle;top=0;left=0;right=0;bottom=0;html=1;align=left;verticalAlign=top;fillColor=none;spacingLeft=60;spacingRight=4;whiteSpace=wrap;overflow=hidden;rotatable=0;points=[[0,0.5],[1,0.5]];portConstraint=eastwest;dropTarget=0;" vertex="1" parent="VDMEnBiIt8bDcIozuHvG-110">
          <mxGeometry y="392" width="240" height="26" as="geometry" />
        </mxCell>
        <mxCell id="VDMEnBiIt8bDcIozuHvG-148" value="" style="shape=partialRectangle;top=0;left=0;bottom=0;html=1;fillColor=none;align=left;verticalAlign=top;spacingLeft=4;spacingRight=4;whiteSpace=wrap;overflow=hidden;rotatable=0;points=[];portConstraint=eastwest;part=1;" vertex="1" connectable="0" parent="VDMEnBiIt8bDcIozuHvG-147">
          <mxGeometry width="56" height="26" as="geometry" />
        </mxCell>
        <mxCell id="VDMEnBiIt8bDcIozuHvG-149" value="assignment_review" style="shape=partialRectangle;top=0;left=0;right=0;bottom=0;html=1;align=left;verticalAlign=top;fillColor=none;spacingLeft=60;spacingRight=4;whiteSpace=wrap;overflow=hidden;rotatable=0;points=[[0,0.5],[1,0.5]];portConstraint=eastwest;dropTarget=0;" vertex="1" parent="VDMEnBiIt8bDcIozuHvG-110">
          <mxGeometry y="418" width="240" height="26" as="geometry" />
        </mxCell>
        <mxCell id="VDMEnBiIt8bDcIozuHvG-150" value="" style="shape=partialRectangle;top=0;left=0;bottom=0;html=1;fillColor=none;align=left;verticalAlign=top;spacingLeft=4;spacingRight=4;whiteSpace=wrap;overflow=hidden;rotatable=0;points=[];portConstraint=eastwest;part=1;" vertex="1" connectable="0" parent="VDMEnBiIt8bDcIozuHvG-149">
          <mxGeometry width="56" height="26" as="geometry" />
        </mxCell>
        <mxCell id="VDMEnBiIt8bDcIozuHvG-151" value="seen" style="shape=partialRectangle;top=0;left=0;right=0;bottom=0;html=1;align=left;verticalAlign=top;fillColor=none;spacingLeft=60;spacingRight=4;whiteSpace=wrap;overflow=hidden;rotatable=0;points=[[0,0.5],[1,0.5]];portConstraint=eastwest;dropTarget=0;" vertex="1" parent="VDMEnBiIt8bDcIozuHvG-110">
          <mxGeometry y="444" width="240" height="26" as="geometry" />
        </mxCell>
        <mxCell id="VDMEnBiIt8bDcIozuHvG-152" value="" style="shape=partialRectangle;top=0;left=0;bottom=0;html=1;fillColor=none;align=left;verticalAlign=top;spacingLeft=4;spacingRight=4;whiteSpace=wrap;overflow=hidden;rotatable=0;points=[];portConstraint=eastwest;part=1;" vertex="1" connectable="0" parent="VDMEnBiIt8bDcIozuHvG-151">
          <mxGeometry width="56" height="26" as="geometry" />
        </mxCell>
        <mxCell id="VDMEnBiIt8bDcIozuHvG-153" value="disputed" style="shape=partialRectangle;top=0;left=0;right=0;bottom=0;html=1;align=left;verticalAlign=top;fillColor=none;spacingLeft=60;spacingRight=4;whiteSpace=wrap;overflow=hidden;rotatable=0;points=[[0,0.5],[1,0.5]];portConstraint=eastwest;dropTarget=0;" vertex="1" parent="VDMEnBiIt8bDcIozuHvG-110">
          <mxGeometry y="470" width="240" height="26" as="geometry" />
        </mxCell>
        <mxCell id="VDMEnBiIt8bDcIozuHvG-154" value="" style="shape=partialRectangle;top=0;left=0;bottom=0;html=1;fillColor=none;align=left;verticalAlign=top;spacingLeft=4;spacingRight=4;whiteSpace=wrap;overflow=hidden;rotatable=0;points=[];portConstraint=eastwest;part=1;" vertex="1" connectable="0" parent="VDMEnBiIt8bDcIozuHvG-153">
          <mxGeometry width="56" height="26" as="geometry" />
        </mxCell>
        <mxCell id="VDMEnBiIt8bDcIozuHvG-155" value="review_time_seconds" style="shape=partialRectangle;top=0;left=0;right=0;bottom=0;html=1;align=left;verticalAlign=top;fillColor=none;spacingLeft=60;spacingRight=4;whiteSpace=wrap;overflow=hidden;rotatable=0;points=[[0,0.5],[1,0.5]];portConstraint=eastwest;dropTarget=0;" vertex="1" parent="VDMEnBiIt8bDcIozuHvG-110">
          <mxGeometry y="496" width="240" height="26" as="geometry" />
        </mxCell>
        <mxCell id="VDMEnBiIt8bDcIozuHvG-156" value="" style="shape=partialRectangle;top=0;left=0;bottom=0;html=1;fillColor=none;align=left;verticalAlign=top;spacingLeft=4;spacingRight=4;whiteSpace=wrap;overflow=hidden;rotatable=0;points=[];portConstraint=eastwest;part=1;" vertex="1" connectable="0" parent="VDMEnBiIt8bDcIozuHvG-155">
          <mxGeometry width="56" height="26" as="geometry" />
        </mxCell>
        <mxCell id="VDMEnBiIt8bDcIozuHvG-157" value="assignment_name" style="shape=partialRectangle;top=0;left=0;right=0;bottom=0;html=1;align=left;verticalAlign=top;fillColor=none;spacingLeft=60;spacingRight=4;whiteSpace=wrap;overflow=hidden;rotatable=0;points=[[0,0.5],[1,0.5]];portConstraint=eastwest;dropTarget=0;" vertex="1" parent="VDMEnBiIt8bDcIozuHvG-110">
          <mxGeometry y="522" width="240" height="26" as="geometry" />
        </mxCell>
        <mxCell id="VDMEnBiIt8bDcIozuHvG-158" value="" style="shape=partialRectangle;top=0;left=0;bottom=0;html=1;fillColor=none;align=left;verticalAlign=top;spacingLeft=4;spacingRight=4;whiteSpace=wrap;overflow=hidden;rotatable=0;points=[];portConstraint=eastwest;part=1;" vertex="1" connectable="0" parent="VDMEnBiIt8bDcIozuHvG-157">
          <mxGeometry width="56" height="26" as="geometry" />
        </mxCell>
        <mxCell id="VDMEnBiIt8bDcIozuHvG-162" value="imported_at" style="shape=partialRectangle;top=0;left=0;right=0;bottom=0;html=1;align=left;verticalAlign=top;fillColor=none;spacingLeft=60;spacingRight=4;whiteSpace=wrap;overflow=hidden;rotatable=0;points=[[0,0.5],[1,0.5]];portConstraint=eastwest;dropTarget=0;" vertex="1" parent="VDMEnBiIt8bDcIozuHvG-110">
          <mxGeometry y="548" width="240" height="26" as="geometry" />
        </mxCell>
        <mxCell id="VDMEnBiIt8bDcIozuHvG-163" value="" style="shape=partialRectangle;top=0;left=0;bottom=0;html=1;fillColor=none;align=left;verticalAlign=top;spacingLeft=4;spacingRight=4;whiteSpace=wrap;overflow=hidden;rotatable=0;points=[];portConstraint=eastwest;part=1;" vertex="1" connectable="0" parent="VDMEnBiIt8bDcIozuHvG-162">
          <mxGeometry width="56" height="26" as="geometry" />
        </mxCell>
        <mxCell id="VDMEnBiIt8bDcIozuHvG-164" style="edgeStyle=orthogonalEdgeStyle;rounded=1;orthogonalLoop=1;jettySize=auto;html=1;entryX=0;entryY=0.5;entryDx=0;entryDy=0;curved=0;" edge="1" parent="1" source="VDMEnBiIt8bDcIozuHvG-129" target="VDMEnBiIt8bDcIozuHvG-102">
          <mxGeometry relative="1" as="geometry" />
        </mxCell>
        <mxCell id="VDMEnBiIt8bDcIozuHvG-209" value="AutoQA Reviews" style="swimlane;html=1;fontStyle=0;childLayout=stackLayout;horizontal=1;startSize=26;fillColor=#e0e0e0;horizontalStack=0;resizeParent=1;resizeLast=0;collapsible=1;marginBottom=0;swimlaneFillColor=#ffffff;align=center;rounded=0;shadow=0;comic=0;labelBackgroundColor=none;strokeWidth=1;fontFamily=Verdana;fontSize=14;swimlaneLine=0;" vertex="1" parent="1">
          <mxGeometry x="280" y="360" width="240" height="290" as="geometry" />
        </mxCell>
        <mxCell id="VDMEnBiIt8bDcIozuHvG-210" value="autoqa_review_id" style="shape=partialRectangle;top=0;left=0;right=0;bottom=0;html=1;align=left;verticalAlign=middle;fillColor=none;spacingLeft=60;spacingRight=4;whiteSpace=wrap;overflow=hidden;rotatable=0;points=[[0,0.5],[1,0.5]];portConstraint=eastwest;dropTarget=0;fontStyle=5;swimlaneLine=0;" vertex="1" parent="VDMEnBiIt8bDcIozuHvG-209">
          <mxGeometry y="26" width="240" height="30" as="geometry" />
        </mxCell>
        <mxCell id="VDMEnBiIt8bDcIozuHvG-211" value="PK, FK2" style="shape=partialRectangle;fontStyle=1;top=0;left=0;bottom=0;html=1;fillColor=none;align=left;verticalAlign=middle;spacingLeft=4;spacingRight=4;whiteSpace=wrap;overflow=hidden;rotatable=0;points=[];portConstraint=eastwest;part=1;swimlaneLine=0;" vertex="1" connectable="0" parent="VDMEnBiIt8bDcIozuHvG-210">
          <mxGeometry width="56" height="30" as="geometry" />
        </mxCell>
        <mxCell id="VDMEnBiIt8bDcIozuHvG-212" value="payment_id" style="shape=partialRectangle;top=1;left=0;right=0;bottom=0;html=1;align=left;verticalAlign=top;fillColor=none;spacingLeft=60;spacingRight=4;whiteSpace=wrap;overflow=hidden;rotatable=0;points=[[0,0.5],[1,0.5]];portConstraint=eastwest;dropTarget=0;" vertex="1" parent="VDMEnBiIt8bDcIozuHvG-209">
          <mxGeometry y="56" width="240" height="26" as="geometry" />
        </mxCell>
        <mxCell id="VDMEnBiIt8bDcIozuHvG-213" value="" style="shape=partialRectangle;top=0;left=0;bottom=0;html=1;fillColor=none;align=left;verticalAlign=top;spacingLeft=4;spacingRight=4;whiteSpace=wrap;overflow=hidden;rotatable=0;points=[];portConstraint=eastwest;part=1;" vertex="1" connectable="0" parent="VDMEnBiIt8bDcIozuHvG-212">
          <mxGeometry width="56" height="26" as="geometry" />
        </mxCell>
        <mxCell id="VDMEnBiIt8bDcIozuHvG-214" value="payment_token_id" style="shape=partialRectangle;top=0;left=0;right=0;bottom=0;html=1;align=left;verticalAlign=top;fillColor=none;spacingLeft=60;spacingRight=4;whiteSpace=wrap;overflow=hidden;rotatable=0;points=[[0,0.5],[1,0.5]];portConstraint=eastwest;dropTarget=0;fontStyle=0" vertex="1" parent="VDMEnBiIt8bDcIozuHvG-209">
          <mxGeometry y="82" width="240" height="26" as="geometry" />
        </mxCell>
        <mxCell id="VDMEnBiIt8bDcIozuHvG-215" value="" style="shape=partialRectangle;top=0;left=0;bottom=0;html=1;fillColor=none;align=left;verticalAlign=top;spacingLeft=4;spacingRight=4;whiteSpace=wrap;overflow=hidden;rotatable=0;points=[];portConstraint=eastwest;part=1;fontStyle=1" vertex="1" connectable="0" parent="VDMEnBiIt8bDcIozuHvG-214">
          <mxGeometry width="56" height="26" as="geometry" />
        </mxCell>
        <mxCell id="VDMEnBiIt8bDcIozuHvG-216" value="&lt;span&gt;external_ticket_id&lt;/span&gt;" style="shape=partialRectangle;top=0;left=0;right=0;bottom=0;html=1;align=left;verticalAlign=top;fillColor=none;spacingLeft=60;spacingRight=4;whiteSpace=wrap;overflow=hidden;rotatable=0;points=[[0,0.5],[1,0.5]];portConstraint=eastwest;dropTarget=0;fontStyle=1" vertex="1" parent="VDMEnBiIt8bDcIozuHvG-209">
          <mxGeometry y="108" width="240" height="26" as="geometry" />
        </mxCell>
        <mxCell id="VDMEnBiIt8bDcIozuHvG-217" value="FK1" style="shape=partialRectangle;top=0;left=0;bottom=0;html=1;fillColor=none;align=left;verticalAlign=top;spacingLeft=4;spacingRight=4;whiteSpace=wrap;overflow=hidden;rotatable=0;points=[];portConstraint=eastwest;part=1;fontStyle=1" vertex="1" connectable="0" parent="VDMEnBiIt8bDcIozuHvG-216">
          <mxGeometry width="56" height="26" as="geometry" />
        </mxCell>
        <mxCell id="VDMEnBiIt8bDcIozuHvG-218" value="created_at" style="shape=partialRectangle;top=0;left=0;right=0;bottom=0;html=1;align=left;verticalAlign=top;fillColor=none;spacingLeft=60;spacingRight=4;whiteSpace=wrap;overflow=hidden;rotatable=0;points=[[0,0.5],[1,0.5]];portConstraint=eastwest;dropTarget=0;" vertex="1" parent="VDMEnBiIt8bDcIozuHvG-209">
          <mxGeometry y="134" width="240" height="26" as="geometry" />
        </mxCell>
        <mxCell id="VDMEnBiIt8bDcIozuHvG-219" value="" style="shape=partialRectangle;top=0;left=0;bottom=0;html=1;fillColor=none;align=left;verticalAlign=top;spacingLeft=4;spacingRight=4;whiteSpace=wrap;overflow=hidden;rotatable=0;points=[];portConstraint=eastwest;part=1;" vertex="1" connectable="0" parent="VDMEnBiIt8bDcIozuHvG-218">
          <mxGeometry width="56" height="26" as="geometry" />
        </mxCell>
        <mxCell id="VDMEnBiIt8bDcIozuHvG-220" value="conversation_created_at" style="shape=partialRectangle;top=0;left=0;right=0;bottom=0;html=1;align=left;verticalAlign=top;fillColor=none;spacingLeft=60;spacingRight=4;whiteSpace=wrap;overflow=hidden;rotatable=0;points=[[0,0.5],[1,0.5]];portConstraint=eastwest;dropTarget=0;fontStyle=0" vertex="1" parent="VDMEnBiIt8bDcIozuHvG-209">
          <mxGeometry y="160" width="240" height="26" as="geometry" />
        </mxCell>
        <mxCell id="VDMEnBiIt8bDcIozuHvG-221" value="" style="shape=partialRectangle;top=0;left=0;bottom=0;html=1;fillColor=none;align=left;verticalAlign=top;spacingLeft=4;spacingRight=4;whiteSpace=wrap;overflow=hidden;rotatable=0;points=[];portConstraint=eastwest;part=1;fontStyle=0" vertex="1" connectable="0" parent="VDMEnBiIt8bDcIozuHvG-220">
          <mxGeometry width="56" height="26" as="geometry" />
        </mxCell>
        <mxCell id="VDMEnBiIt8bDcIozuHvG-222" value="conversation_created_date" style="shape=partialRectangle;top=0;left=0;right=0;bottom=0;html=1;align=left;verticalAlign=top;fillColor=none;spacingLeft=60;spacingRight=4;whiteSpace=wrap;overflow=hidden;rotatable=0;points=[[0,0.5],[1,0.5]];portConstraint=eastwest;dropTarget=0;" vertex="1" parent="VDMEnBiIt8bDcIozuHvG-209">
          <mxGeometry y="186" width="240" height="26" as="geometry" />
        </mxCell>
        <mxCell id="VDMEnBiIt8bDcIozuHvG-223" value="" style="shape=partialRectangle;top=0;left=0;bottom=0;html=1;fillColor=none;align=left;verticalAlign=top;spacingLeft=4;spacingRight=4;whiteSpace=wrap;overflow=hidden;rotatable=0;points=[];portConstraint=eastwest;part=1;" vertex="1" connectable="0" parent="VDMEnBiIt8bDcIozuHvG-222">
          <mxGeometry width="56" height="26" as="geometry" />
        </mxCell>
        <mxCell id="VDMEnBiIt8bDcIozuHvG-224" value="team_id" style="shape=partialRectangle;top=0;left=0;right=0;bottom=0;html=1;align=left;verticalAlign=top;fillColor=none;spacingLeft=60;spacingRight=4;whiteSpace=wrap;overflow=hidden;rotatable=0;points=[[0,0.5],[1,0.5]];portConstraint=eastwest;dropTarget=0;" vertex="1" parent="VDMEnBiIt8bDcIozuHvG-209">
          <mxGeometry y="212" width="240" height="26" as="geometry" />
        </mxCell>
        <mxCell id="VDMEnBiIt8bDcIozuHvG-225" value="" style="shape=partialRectangle;top=0;left=0;bottom=0;html=1;fillColor=none;align=left;verticalAlign=top;spacingLeft=4;spacingRight=4;whiteSpace=wrap;overflow=hidden;rotatable=0;points=[];portConstraint=eastwest;part=1;" vertex="1" connectable="0" parent="VDMEnBiIt8bDcIozuHvG-224">
          <mxGeometry width="56" height="26" as="geometry" />
        </mxCell>
        <mxCell id="VDMEnBiIt8bDcIozuHvG-226" value="reviewee_internal_id" style="shape=partialRectangle;top=0;left=0;right=0;bottom=0;html=1;align=left;verticalAlign=top;fillColor=none;spacingLeft=60;spacingRight=4;whiteSpace=wrap;overflow=hidden;rotatable=0;points=[[0,0.5],[1,0.5]];portConstraint=eastwest;dropTarget=0;" vertex="1" parent="VDMEnBiIt8bDcIozuHvG-209">
          <mxGeometry y="238" width="240" height="26" as="geometry" />
        </mxCell>
        <mxCell id="VDMEnBiIt8bDcIozuHvG-227" value="" style="shape=partialRectangle;top=0;left=0;bottom=0;html=1;fillColor=none;align=left;verticalAlign=top;spacingLeft=4;spacingRight=4;whiteSpace=wrap;overflow=hidden;rotatable=0;points=[];portConstraint=eastwest;part=1;" vertex="1" connectable="0" parent="VDMEnBiIt8bDcIozuHvG-226">
          <mxGeometry width="56" height="26" as="geometry" />
        </mxCell>
        <mxCell id="VDMEnBiIt8bDcIozuHvG-228" value="updated_at" style="shape=partialRectangle;top=0;left=0;right=0;bottom=0;html=1;align=left;verticalAlign=top;fillColor=none;spacingLeft=60;spacingRight=4;whiteSpace=wrap;overflow=hidden;rotatable=0;points=[[0,0.5],[1,0.5]];portConstraint=eastwest;dropTarget=0;" vertex="1" parent="VDMEnBiIt8bDcIozuHvG-209">
          <mxGeometry y="264" width="240" height="26" as="geometry" />
        </mxCell>
        <mxCell id="VDMEnBiIt8bDcIozuHvG-229" value="" style="shape=partialRectangle;top=0;left=0;bottom=0;html=1;fillColor=none;align=left;verticalAlign=top;spacingLeft=4;spacingRight=4;whiteSpace=wrap;overflow=hidden;rotatable=0;points=[];portConstraint=eastwest;part=1;" vertex="1" connectable="0" parent="VDMEnBiIt8bDcIozuHvG-228">
          <mxGeometry width="56" height="26" as="geometry" />
        </mxCell>
        <mxCell id="VDMEnBiIt8bDcIozuHvG-253" style="edgeStyle=orthogonalEdgeStyle;rounded=0;orthogonalLoop=1;jettySize=auto;html=1;" edge="1" parent="1" source="VDMEnBiIt8bDcIozuHvG-216" target="VDMEnBiIt8bDcIozuHvG-102">
          <mxGeometry relative="1" as="geometry" />
        </mxCell>
        <mxCell id="VDMEnBiIt8bDcIozuHvG-254" value="Manual Ratings" style="swimlane;html=1;fontStyle=0;childLayout=stackLayout;horizontal=1;startSize=26;fillColor=#e0e0e0;horizontalStack=0;resizeParent=1;resizeLast=0;collapsible=1;marginBottom=0;swimlaneFillColor=#ffffff;align=center;rounded=0;shadow=0;comic=0;labelBackgroundColor=none;strokeWidth=1;fontFamily=Verdana;fontSize=14;swimlaneLine=0;" vertex="1" parent="1">
          <mxGeometry x="-1370" y="722" width="290" height="318" as="geometry" />
        </mxCell>
        <mxCell id="VDMEnBiIt8bDcIozuHvG-255" value="unique_id (review_id, category_id)" style="shape=partialRectangle;top=0;left=0;right=0;bottom=0;html=1;align=left;verticalAlign=middle;fillColor=none;spacingLeft=60;spacingRight=4;whiteSpace=wrap;overflow=hidden;rotatable=0;points=[[0,0.5],[1,0.5]];portConstraint=eastwest;dropTarget=0;fontStyle=5;swimlaneLine=0;" vertex="1" parent="VDMEnBiIt8bDcIozuHvG-254">
          <mxGeometry y="26" width="290" height="30" as="geometry" />
        </mxCell>
        <mxCell id="VDMEnBiIt8bDcIozuHvG-256" value="PK" style="shape=partialRectangle;fontStyle=1;top=0;left=0;bottom=0;html=1;fillColor=none;align=left;verticalAlign=middle;spacingLeft=4;spacingRight=4;whiteSpace=wrap;overflow=hidden;rotatable=0;points=[];portConstraint=eastwest;part=1;swimlaneLine=0;" vertex="1" connectable="0" parent="VDMEnBiIt8bDcIozuHvG-255">
          <mxGeometry width="56" height="30" as="geometry" />
        </mxCell>
        <mxCell id="VDMEnBiIt8bDcIozuHvG-257" value="payment_id" style="shape=partialRectangle;top=1;left=0;right=0;bottom=0;html=1;align=left;verticalAlign=top;fillColor=none;spacingLeft=60;spacingRight=4;whiteSpace=wrap;overflow=hidden;rotatable=0;points=[[0,0.5],[1,0.5]];portConstraint=eastwest;dropTarget=0;" vertex="1" parent="VDMEnBiIt8bDcIozuHvG-254">
          <mxGeometry y="56" width="290" height="26" as="geometry" />
        </mxCell>
        <mxCell id="VDMEnBiIt8bDcIozuHvG-258" value="" style="shape=partialRectangle;top=0;left=0;bottom=0;html=1;fillColor=none;align=left;verticalAlign=top;spacingLeft=4;spacingRight=4;whiteSpace=wrap;overflow=hidden;rotatable=0;points=[];portConstraint=eastwest;part=1;" vertex="1" connectable="0" parent="VDMEnBiIt8bDcIozuHvG-257">
          <mxGeometry width="56" height="26" as="geometry" />
        </mxCell>
        <mxCell id="VDMEnBiIt8bDcIozuHvG-259" value="team_id" style="shape=partialRectangle;top=0;left=0;right=0;bottom=0;html=1;align=left;verticalAlign=top;fillColor=none;spacingLeft=60;spacingRight=4;whiteSpace=wrap;overflow=hidden;rotatable=0;points=[[0,0.5],[1,0.5]];portConstraint=eastwest;dropTarget=0;fontStyle=0" vertex="1" parent="VDMEnBiIt8bDcIozuHvG-254">
          <mxGeometry y="82" width="290" height="26" as="geometry" />
        </mxCell>
        <mxCell id="VDMEnBiIt8bDcIozuHvG-260" value="" style="shape=partialRectangle;top=0;left=0;bottom=0;html=1;fillColor=none;align=left;verticalAlign=top;spacingLeft=4;spacingRight=4;whiteSpace=wrap;overflow=hidden;rotatable=0;points=[];portConstraint=eastwest;part=1;fontStyle=1" vertex="1" connectable="0" parent="VDMEnBiIt8bDcIozuHvG-259">
          <mxGeometry width="56" height="26" as="geometry" />
        </mxCell>
        <mxCell id="VDMEnBiIt8bDcIozuHvG-261" value="review_id" style="shape=partialRectangle;top=0;left=0;right=0;bottom=0;html=1;align=left;verticalAlign=top;fillColor=none;spacingLeft=60;spacingRight=4;whiteSpace=wrap;overflow=hidden;rotatable=0;points=[[0,0.5],[1,0.5]];portConstraint=eastwest;dropTarget=0;fontStyle=1" vertex="1" parent="VDMEnBiIt8bDcIozuHvG-254">
          <mxGeometry y="108" width="290" height="26" as="geometry" />
        </mxCell>
        <mxCell id="VDMEnBiIt8bDcIozuHvG-262" value="&lt;b&gt;*FK1&lt;/b&gt;" style="shape=partialRectangle;top=0;left=0;bottom=0;html=1;fillColor=none;align=left;verticalAlign=top;spacingLeft=4;spacingRight=4;whiteSpace=wrap;overflow=hidden;rotatable=0;points=[];portConstraint=eastwest;part=1;" vertex="1" connectable="0" parent="VDMEnBiIt8bDcIozuHvG-261">
          <mxGeometry width="56" height="26" as="geometry" />
        </mxCell>
        <mxCell id="VDMEnBiIt8bDcIozuHvG-263" value="category_id" style="shape=partialRectangle;top=0;left=0;right=0;bottom=0;html=1;align=left;verticalAlign=top;fillColor=none;spacingLeft=60;spacingRight=4;whiteSpace=wrap;overflow=hidden;rotatable=0;points=[[0,0.5],[1,0.5]];portConstraint=eastwest;dropTarget=0;fontStyle=1" vertex="1" parent="VDMEnBiIt8bDcIozuHvG-254">
          <mxGeometry y="134" width="290" height="26" as="geometry" />
        </mxCell>
        <mxCell id="VDMEnBiIt8bDcIozuHvG-264" value="&lt;b&gt;*&lt;/b&gt;" style="shape=partialRectangle;top=0;left=0;bottom=0;html=1;fillColor=none;align=left;verticalAlign=top;spacingLeft=4;spacingRight=4;whiteSpace=wrap;overflow=hidden;rotatable=0;points=[];portConstraint=eastwest;part=1;" vertex="1" connectable="0" parent="VDMEnBiIt8bDcIozuHvG-263">
          <mxGeometry width="56" height="26" as="geometry" />
        </mxCell>
        <mxCell id="VDMEnBiIt8bDcIozuHvG-265" value="rating" style="shape=partialRectangle;top=0;left=0;right=0;bottom=0;html=1;align=left;verticalAlign=top;fillColor=none;spacingLeft=60;spacingRight=4;whiteSpace=wrap;overflow=hidden;rotatable=0;points=[[0,0.5],[1,0.5]];portConstraint=eastwest;dropTarget=0;fontStyle=0" vertex="1" parent="VDMEnBiIt8bDcIozuHvG-254">
          <mxGeometry y="160" width="290" height="26" as="geometry" />
        </mxCell>
        <mxCell id="VDMEnBiIt8bDcIozuHvG-266" value="" style="shape=partialRectangle;top=0;left=0;bottom=0;html=1;fillColor=none;align=left;verticalAlign=top;spacingLeft=4;spacingRight=4;whiteSpace=wrap;overflow=hidden;rotatable=0;points=[];portConstraint=eastwest;part=1;" vertex="1" connectable="0" parent="VDMEnBiIt8bDcIozuHvG-265">
          <mxGeometry width="56" height="26" as="geometry" />
        </mxCell>
        <mxCell id="VDMEnBiIt8bDcIozuHvG-267" value="cause" style="shape=partialRectangle;top=0;left=0;right=0;bottom=0;html=1;align=left;verticalAlign=top;fillColor=none;spacingLeft=60;spacingRight=4;whiteSpace=wrap;overflow=hidden;rotatable=0;points=[[0,0.5],[1,0.5]];portConstraint=eastwest;dropTarget=0;" vertex="1" parent="VDMEnBiIt8bDcIozuHvG-254">
          <mxGeometry y="186" width="290" height="26" as="geometry" />
        </mxCell>
        <mxCell id="VDMEnBiIt8bDcIozuHvG-268" value="" style="shape=partialRectangle;top=0;left=0;bottom=0;html=1;fillColor=none;align=left;verticalAlign=top;spacingLeft=4;spacingRight=4;whiteSpace=wrap;overflow=hidden;rotatable=0;points=[];portConstraint=eastwest;part=1;" vertex="1" connectable="0" parent="VDMEnBiIt8bDcIozuHvG-267">
          <mxGeometry width="56" height="26" as="geometry" />
        </mxCell>
        <mxCell id="VDMEnBiIt8bDcIozuHvG-269" value="rating_max" style="shape=partialRectangle;top=0;left=0;right=0;bottom=0;html=1;align=left;verticalAlign=top;fillColor=none;spacingLeft=60;spacingRight=4;whiteSpace=wrap;overflow=hidden;rotatable=0;points=[[0,0.5],[1,0.5]];portConstraint=eastwest;dropTarget=0;" vertex="1" parent="VDMEnBiIt8bDcIozuHvG-254">
          <mxGeometry y="212" width="290" height="26" as="geometry" />
        </mxCell>
        <mxCell id="VDMEnBiIt8bDcIozuHvG-270" value="" style="shape=partialRectangle;top=0;left=0;bottom=0;html=1;fillColor=none;align=left;verticalAlign=top;spacingLeft=4;spacingRight=4;whiteSpace=wrap;overflow=hidden;rotatable=0;points=[];portConstraint=eastwest;part=1;" vertex="1" connectable="0" parent="VDMEnBiIt8bDcIozuHvG-269">
          <mxGeometry width="56" height="26" as="geometry" />
        </mxCell>
        <mxCell id="VDMEnBiIt8bDcIozuHvG-271" value="weight" style="shape=partialRectangle;top=0;left=0;right=0;bottom=0;html=1;align=left;verticalAlign=top;fillColor=none;spacingLeft=60;spacingRight=4;whiteSpace=wrap;overflow=hidden;rotatable=0;points=[[0,0.5],[1,0.5]];portConstraint=eastwest;dropTarget=0;" vertex="1" parent="VDMEnBiIt8bDcIozuHvG-254">
          <mxGeometry y="238" width="290" height="26" as="geometry" />
        </mxCell>
        <mxCell id="VDMEnBiIt8bDcIozuHvG-272" value="" style="shape=partialRectangle;top=0;left=0;bottom=0;html=1;fillColor=none;align=left;verticalAlign=top;spacingLeft=4;spacingRight=4;whiteSpace=wrap;overflow=hidden;rotatable=0;points=[];portConstraint=eastwest;part=1;" vertex="1" connectable="0" parent="VDMEnBiIt8bDcIozuHvG-271">
          <mxGeometry width="56" height="26" as="geometry" />
        </mxCell>
        <mxCell id="VDMEnBiIt8bDcIozuHvG-273" value="critical" style="shape=partialRectangle;top=0;left=0;right=0;bottom=0;html=1;align=left;verticalAlign=top;fillColor=none;spacingLeft=60;spacingRight=4;whiteSpace=wrap;overflow=hidden;rotatable=0;points=[[0,0.5],[1,0.5]];portConstraint=eastwest;dropTarget=0;" vertex="1" parent="VDMEnBiIt8bDcIozuHvG-254">
          <mxGeometry y="264" width="290" height="26" as="geometry" />
        </mxCell>
        <mxCell id="VDMEnBiIt8bDcIozuHvG-274" value="" style="shape=partialRectangle;top=0;left=0;bottom=0;html=1;fillColor=none;align=left;verticalAlign=top;spacingLeft=4;spacingRight=4;whiteSpace=wrap;overflow=hidden;rotatable=0;points=[];portConstraint=eastwest;part=1;" vertex="1" connectable="0" parent="VDMEnBiIt8bDcIozuHvG-273">
          <mxGeometry width="56" height="26" as="geometry" />
        </mxCell>
        <mxCell id="VDMEnBiIt8bDcIozuHvG-275" value="category_name" style="shape=partialRectangle;top=0;left=0;right=0;bottom=0;html=1;align=left;verticalAlign=top;fillColor=none;spacingLeft=60;spacingRight=4;whiteSpace=wrap;overflow=hidden;rotatable=0;points=[[0,0.5],[1,0.5]];portConstraint=eastwest;dropTarget=0;" vertex="1" parent="VDMEnBiIt8bDcIozuHvG-254">
          <mxGeometry y="290" width="290" height="26" as="geometry" />
        </mxCell>
        <mxCell id="VDMEnBiIt8bDcIozuHvG-276" value="" style="shape=partialRectangle;top=0;left=0;bottom=0;html=1;fillColor=none;align=left;verticalAlign=top;spacingLeft=4;spacingRight=4;whiteSpace=wrap;overflow=hidden;rotatable=0;points=[];portConstraint=eastwest;part=1;" vertex="1" connectable="0" parent="VDMEnBiIt8bDcIozuHvG-275">
          <mxGeometry width="56" height="26" as="geometry" />
        </mxCell>
        <mxCell id="VDMEnBiIt8bDcIozuHvG-298" style="edgeStyle=orthogonalEdgeStyle;rounded=0;orthogonalLoop=1;jettySize=auto;html=1;entryX=0.5;entryY=0;entryDx=0;entryDy=0;" edge="1" parent="1" source="VDMEnBiIt8bDcIozuHvG-297" target="VDMEnBiIt8bDcIozuHvG-254">
          <mxGeometry relative="1" as="geometry" />
        </mxCell>
        <mxCell id="VDMEnBiIt8bDcIozuHvG-297" value="&lt;div&gt;Table doesn&#39;t contain a unique field.&lt;/div&gt;Creating a composite primary key&amp;nbsp;&lt;div&gt;out of existing fields.&lt;/div&gt;" style="ellipse;shape=cloud;whiteSpace=wrap;html=1;spacingLeft=0;" vertex="1" parent="1">
          <mxGeometry x="-1365" y="540" width="280" height="140" as="geometry" />
        </mxCell>
        <mxCell id="VDMEnBiIt8bDcIozuHvG-299" style="edgeStyle=orthogonalEdgeStyle;rounded=1;orthogonalLoop=1;jettySize=auto;html=1;entryX=0;entryY=0.5;entryDx=0;entryDy=0;curved=0;" edge="1" parent="1" source="VDMEnBiIt8bDcIozuHvG-261" target="VDMEnBiIt8bDcIozuHvG-111">
          <mxGeometry relative="1" as="geometry" />
        </mxCell>
        <mxCell id="VDMEnBiIt8bDcIozuHvG-300" value="AutoQA Ratings" style="swimlane;html=1;fontStyle=0;childLayout=stackLayout;horizontal=1;startSize=26;fillColor=#e0e0e0;horizontalStack=0;resizeParent=1;resizeLast=0;collapsible=1;marginBottom=0;swimlaneFillColor=#ffffff;align=center;rounded=0;shadow=0;comic=0;labelBackgroundColor=none;strokeWidth=1;fontFamily=Verdana;fontSize=14;swimlaneLine=0;" vertex="1" parent="1">
          <mxGeometry x="840" y="722" width="240" height="318" as="geometry" />
        </mxCell>
        <mxCell id="VDMEnBiIt8bDcIozuHvG-301" value="autoqa_rating_id" style="shape=partialRectangle;top=0;left=0;right=0;bottom=0;html=1;align=left;verticalAlign=middle;fillColor=none;spacingLeft=60;spacingRight=4;whiteSpace=wrap;overflow=hidden;rotatable=0;points=[[0,0.5],[1,0.5]];portConstraint=eastwest;dropTarget=0;fontStyle=5;swimlaneLine=0;" vertex="1" parent="VDMEnBiIt8bDcIozuHvG-300">
          <mxGeometry y="26" width="240" height="30" as="geometry" />
        </mxCell>
        <mxCell id="VDMEnBiIt8bDcIozuHvG-302" value="PK" style="shape=partialRectangle;fontStyle=1;top=0;left=0;bottom=0;html=1;fillColor=none;align=left;verticalAlign=middle;spacingLeft=4;spacingRight=4;whiteSpace=wrap;overflow=hidden;rotatable=0;points=[];portConstraint=eastwest;part=1;swimlaneLine=0;" vertex="1" connectable="0" parent="VDMEnBiIt8bDcIozuHvG-301">
          <mxGeometry width="56" height="30" as="geometry" />
        </mxCell>
        <mxCell id="VDMEnBiIt8bDcIozuHvG-303" value="autoqa_review_id" style="shape=partialRectangle;top=1;left=0;right=0;bottom=0;html=1;align=left;verticalAlign=top;fillColor=none;spacingLeft=60;spacingRight=4;whiteSpace=wrap;overflow=hidden;rotatable=0;points=[[0,0.5],[1,0.5]];portConstraint=eastwest;dropTarget=0;fontStyle=1" vertex="1" parent="VDMEnBiIt8bDcIozuHvG-300">
          <mxGeometry y="56" width="240" height="26" as="geometry" />
        </mxCell>
        <mxCell id="VDMEnBiIt8bDcIozuHvG-304" value="FK1" style="shape=partialRectangle;top=0;left=0;bottom=0;html=1;fillColor=none;align=left;verticalAlign=top;spacingLeft=4;spacingRight=4;whiteSpace=wrap;overflow=hidden;rotatable=0;points=[];portConstraint=eastwest;part=1;" vertex="1" connectable="0" parent="VDMEnBiIt8bDcIozuHvG-303">
          <mxGeometry width="56" height="26" as="geometry" />
        </mxCell>
        <mxCell id="VDMEnBiIt8bDcIozuHvG-305" value="&lt;span style=&quot;font-weight: normal;&quot;&gt;payment_id&lt;/span&gt;" style="shape=partialRectangle;top=0;left=0;right=0;bottom=0;html=1;align=left;verticalAlign=top;fillColor=none;spacingLeft=60;spacingRight=4;whiteSpace=wrap;overflow=hidden;rotatable=0;points=[[0,0.5],[1,0.5]];portConstraint=eastwest;dropTarget=0;fontStyle=1" vertex="1" parent="VDMEnBiIt8bDcIozuHvG-300">
          <mxGeometry y="82" width="240" height="26" as="geometry" />
        </mxCell>
        <mxCell id="VDMEnBiIt8bDcIozuHvG-306" value="" style="shape=partialRectangle;top=0;left=0;bottom=0;html=1;fillColor=none;align=left;verticalAlign=top;spacingLeft=4;spacingRight=4;whiteSpace=wrap;overflow=hidden;rotatable=0;points=[];portConstraint=eastwest;part=1;fontStyle=0" vertex="1" connectable="0" parent="VDMEnBiIt8bDcIozuHvG-305">
          <mxGeometry width="56" height="26" as="geometry" />
        </mxCell>
        <mxCell id="VDMEnBiIt8bDcIozuHvG-307" value="&lt;span style=&quot;&quot;&gt;team_id&lt;/span&gt;" style="shape=partialRectangle;top=0;left=0;right=0;bottom=0;html=1;align=left;verticalAlign=top;fillColor=none;spacingLeft=60;spacingRight=4;whiteSpace=wrap;overflow=hidden;rotatable=0;points=[[0,0.5],[1,0.5]];portConstraint=eastwest;dropTarget=0;fontStyle=0" vertex="1" parent="VDMEnBiIt8bDcIozuHvG-300">
          <mxGeometry y="108" width="240" height="26" as="geometry" />
        </mxCell>
        <mxCell id="VDMEnBiIt8bDcIozuHvG-308" value="" style="shape=partialRectangle;top=0;left=0;bottom=0;html=1;fillColor=none;align=left;verticalAlign=top;spacingLeft=4;spacingRight=4;whiteSpace=wrap;overflow=hidden;rotatable=0;points=[];portConstraint=eastwest;part=1;fontStyle=1" vertex="1" connectable="0" parent="VDMEnBiIt8bDcIozuHvG-307">
          <mxGeometry width="56" height="26" as="geometry" />
        </mxCell>
        <mxCell id="VDMEnBiIt8bDcIozuHvG-309" value="payment_token_id" style="shape=partialRectangle;top=0;left=0;right=0;bottom=0;html=1;align=left;verticalAlign=top;fillColor=none;spacingLeft=60;spacingRight=4;whiteSpace=wrap;overflow=hidden;rotatable=0;points=[[0,0.5],[1,0.5]];portConstraint=eastwest;dropTarget=0;" vertex="1" parent="VDMEnBiIt8bDcIozuHvG-300">
          <mxGeometry y="134" width="240" height="26" as="geometry" />
        </mxCell>
        <mxCell id="VDMEnBiIt8bDcIozuHvG-310" value="" style="shape=partialRectangle;top=0;left=0;bottom=0;html=1;fillColor=none;align=left;verticalAlign=top;spacingLeft=4;spacingRight=4;whiteSpace=wrap;overflow=hidden;rotatable=0;points=[];portConstraint=eastwest;part=1;" vertex="1" connectable="0" parent="VDMEnBiIt8bDcIozuHvG-309">
          <mxGeometry width="56" height="26" as="geometry" />
        </mxCell>
        <mxCell id="VDMEnBiIt8bDcIozuHvG-311" value="external_ticket_id" style="shape=partialRectangle;top=0;left=0;right=0;bottom=0;html=1;align=left;verticalAlign=top;fillColor=none;spacingLeft=60;spacingRight=4;whiteSpace=wrap;overflow=hidden;rotatable=0;points=[[0,0.5],[1,0.5]];portConstraint=eastwest;dropTarget=0;fontStyle=0" vertex="1" parent="VDMEnBiIt8bDcIozuHvG-300">
          <mxGeometry y="160" width="240" height="26" as="geometry" />
        </mxCell>
        <mxCell id="VDMEnBiIt8bDcIozuHvG-312" value="" style="shape=partialRectangle;top=0;left=0;bottom=0;html=1;fillColor=none;align=left;verticalAlign=top;spacingLeft=4;spacingRight=4;whiteSpace=wrap;overflow=hidden;rotatable=0;points=[];portConstraint=eastwest;part=1;fontStyle=0" vertex="1" connectable="0" parent="VDMEnBiIt8bDcIozuHvG-311">
          <mxGeometry width="56" height="26" as="geometry" />
        </mxCell>
        <mxCell id="VDMEnBiIt8bDcIozuHvG-313" value="rating_category_id" style="shape=partialRectangle;top=0;left=0;right=0;bottom=0;html=1;align=left;verticalAlign=top;fillColor=none;spacingLeft=60;spacingRight=4;whiteSpace=wrap;overflow=hidden;rotatable=0;points=[[0,0.5],[1,0.5]];portConstraint=eastwest;dropTarget=0;" vertex="1" parent="VDMEnBiIt8bDcIozuHvG-300">
          <mxGeometry y="186" width="240" height="26" as="geometry" />
        </mxCell>
        <mxCell id="VDMEnBiIt8bDcIozuHvG-314" value="" style="shape=partialRectangle;top=0;left=0;bottom=0;html=1;fillColor=none;align=left;verticalAlign=top;spacingLeft=4;spacingRight=4;whiteSpace=wrap;overflow=hidden;rotatable=0;points=[];portConstraint=eastwest;part=1;" vertex="1" connectable="0" parent="VDMEnBiIt8bDcIozuHvG-313">
          <mxGeometry width="56" height="26" as="geometry" />
        </mxCell>
        <mxCell id="VDMEnBiIt8bDcIozuHvG-315" value="rating_category_name" style="shape=partialRectangle;top=0;left=0;right=0;bottom=0;html=1;align=left;verticalAlign=top;fillColor=none;spacingLeft=60;spacingRight=4;whiteSpace=wrap;overflow=hidden;rotatable=0;points=[[0,0.5],[1,0.5]];portConstraint=eastwest;dropTarget=0;" vertex="1" parent="VDMEnBiIt8bDcIozuHvG-300">
          <mxGeometry y="212" width="240" height="26" as="geometry" />
        </mxCell>
        <mxCell id="VDMEnBiIt8bDcIozuHvG-316" value="" style="shape=partialRectangle;top=0;left=0;bottom=0;html=1;fillColor=none;align=left;verticalAlign=top;spacingLeft=4;spacingRight=4;whiteSpace=wrap;overflow=hidden;rotatable=0;points=[];portConstraint=eastwest;part=1;" vertex="1" connectable="0" parent="VDMEnBiIt8bDcIozuHvG-315">
          <mxGeometry width="56" height="26" as="geometry" />
        </mxCell>
        <mxCell id="VDMEnBiIt8bDcIozuHvG-317" value="rating_scale_score" style="shape=partialRectangle;top=0;left=0;right=0;bottom=0;html=1;align=left;verticalAlign=top;fillColor=none;spacingLeft=60;spacingRight=4;whiteSpace=wrap;overflow=hidden;rotatable=0;points=[[0,0.5],[1,0.5]];portConstraint=eastwest;dropTarget=0;" vertex="1" parent="VDMEnBiIt8bDcIozuHvG-300">
          <mxGeometry y="238" width="240" height="26" as="geometry" />
        </mxCell>
        <mxCell id="VDMEnBiIt8bDcIozuHvG-318" value="" style="shape=partialRectangle;top=0;left=0;bottom=0;html=1;fillColor=none;align=left;verticalAlign=top;spacingLeft=4;spacingRight=4;whiteSpace=wrap;overflow=hidden;rotatable=0;points=[];portConstraint=eastwest;part=1;" vertex="1" connectable="0" parent="VDMEnBiIt8bDcIozuHvG-317">
          <mxGeometry width="56" height="26" as="geometry" />
        </mxCell>
        <mxCell id="VDMEnBiIt8bDcIozuHvG-319" value="score" style="shape=partialRectangle;top=0;left=0;right=0;bottom=0;html=1;align=left;verticalAlign=top;fillColor=none;spacingLeft=60;spacingRight=4;whiteSpace=wrap;overflow=hidden;rotatable=0;points=[[0,0.5],[1,0.5]];portConstraint=eastwest;dropTarget=0;" vertex="1" parent="VDMEnBiIt8bDcIozuHvG-300">
          <mxGeometry y="264" width="240" height="26" as="geometry" />
        </mxCell>
        <mxCell id="VDMEnBiIt8bDcIozuHvG-320" value="" style="shape=partialRectangle;top=0;left=0;bottom=0;html=1;fillColor=none;align=left;verticalAlign=top;spacingLeft=4;spacingRight=4;whiteSpace=wrap;overflow=hidden;rotatable=0;points=[];portConstraint=eastwest;part=1;" vertex="1" connectable="0" parent="VDMEnBiIt8bDcIozuHvG-319">
          <mxGeometry width="56" height="26" as="geometry" />
        </mxCell>
        <mxCell id="4zKfhWnxIO-Xe_y0Ikxf-4" value="reviewee_internal_id" style="shape=partialRectangle;top=0;left=0;right=0;bottom=0;html=1;align=left;verticalAlign=top;fillColor=none;spacingLeft=60;spacingRight=4;whiteSpace=wrap;overflow=hidden;rotatable=0;points=[[0,0.5],[1,0.5]];portConstraint=eastwest;dropTarget=0;" vertex="1" parent="VDMEnBiIt8bDcIozuHvG-300">
          <mxGeometry y="290" width="240" height="26" as="geometry" />
        </mxCell>
        <mxCell id="4zKfhWnxIO-Xe_y0Ikxf-5" value="" style="shape=partialRectangle;top=0;left=0;bottom=0;html=1;fillColor=none;align=left;verticalAlign=top;spacingLeft=4;spacingRight=4;whiteSpace=wrap;overflow=hidden;rotatable=0;points=[];portConstraint=eastwest;part=1;" vertex="1" connectable="0" parent="4zKfhWnxIO-Xe_y0Ikxf-4">
          <mxGeometry width="56" height="26" as="geometry" />
        </mxCell>
        <mxCell id="4zKfhWnxIO-Xe_y0Ikxf-1" style="edgeStyle=orthogonalEdgeStyle;rounded=1;orthogonalLoop=1;jettySize=auto;html=1;entryX=1;entryY=0.5;entryDx=0;entryDy=0;curved=0;" edge="1" parent="1" source="VDMEnBiIt8bDcIozuHvG-303" target="VDMEnBiIt8bDcIozuHvG-210">
          <mxGeometry relative="1" as="geometry" />
        </mxCell>
        <mxCell id="4zKfhWnxIO-Xe_y0Ikxf-8" value="AutoQA Root Cause" style="swimlane;html=1;fontStyle=0;childLayout=stackLayout;horizontal=1;startSize=26;fillColor=#e0e0e0;horizontalStack=0;resizeParent=1;resizeLast=0;collapsible=1;marginBottom=0;swimlaneFillColor=#ffffff;align=center;rounded=0;shadow=0;comic=0;labelBackgroundColor=none;strokeWidth=1;fontFamily=Verdana;fontSize=14;swimlaneLine=0;" vertex="1" parent="1">
          <mxGeometry x="1240" y="722" width="550" height="138" as="geometry" />
        </mxCell>
        <mxCell id="4zKfhWnxIO-Xe_y0Ikxf-9" value="unique_id (autoqa_rating_id, row_number() over (partition by autoqa_rating_id)" style="shape=partialRectangle;top=0;left=0;right=0;bottom=0;html=1;align=left;verticalAlign=middle;fillColor=none;spacingLeft=60;spacingRight=4;whiteSpace=wrap;overflow=hidden;rotatable=0;points=[[0,0.5],[1,0.5]];portConstraint=eastwest;dropTarget=0;fontStyle=1;swimlaneLine=0;" vertex="1" parent="4zKfhWnxIO-Xe_y0Ikxf-8">
          <mxGeometry y="26" width="550" height="30" as="geometry" />
        </mxCell>
        <mxCell id="4zKfhWnxIO-Xe_y0Ikxf-10" value="PK" style="shape=partialRectangle;fontStyle=1;top=0;left=0;bottom=0;html=1;fillColor=none;align=left;verticalAlign=middle;spacingLeft=4;spacingRight=4;whiteSpace=wrap;overflow=hidden;rotatable=0;points=[];portConstraint=eastwest;part=1;swimlaneLine=0;" vertex="1" connectable="0" parent="4zKfhWnxIO-Xe_y0Ikxf-9">
          <mxGeometry width="56" height="30" as="geometry" />
        </mxCell>
        <mxCell id="4zKfhWnxIO-Xe_y0Ikxf-11" value="category" style="shape=partialRectangle;top=1;left=0;right=0;bottom=0;html=1;align=left;verticalAlign=top;fillColor=none;spacingLeft=60;spacingRight=4;whiteSpace=wrap;overflow=hidden;rotatable=0;points=[[0,0.5],[1,0.5]];portConstraint=eastwest;dropTarget=0;fontStyle=0" vertex="1" parent="4zKfhWnxIO-Xe_y0Ikxf-8">
          <mxGeometry y="56" width="550" height="26" as="geometry" />
        </mxCell>
        <mxCell id="4zKfhWnxIO-Xe_y0Ikxf-12" value="" style="shape=partialRectangle;top=0;left=0;bottom=0;html=1;fillColor=none;align=left;verticalAlign=top;spacingLeft=4;spacingRight=4;whiteSpace=wrap;overflow=hidden;rotatable=0;points=[];portConstraint=eastwest;part=1;" vertex="1" connectable="0" parent="4zKfhWnxIO-Xe_y0Ikxf-11">
          <mxGeometry width="56" height="26" as="geometry" />
        </mxCell>
        <mxCell id="4zKfhWnxIO-Xe_y0Ikxf-13" value="&lt;span style=&quot;font-weight: 400;&quot;&gt;count&lt;/span&gt;" style="shape=partialRectangle;top=0;left=0;right=0;bottom=0;html=1;align=left;verticalAlign=top;fillColor=none;spacingLeft=60;spacingRight=4;whiteSpace=wrap;overflow=hidden;rotatable=0;points=[[0,0.5],[1,0.5]];portConstraint=eastwest;dropTarget=0;fontStyle=1" vertex="1" parent="4zKfhWnxIO-Xe_y0Ikxf-8">
          <mxGeometry y="82" width="550" height="26" as="geometry" />
        </mxCell>
        <mxCell id="4zKfhWnxIO-Xe_y0Ikxf-14" value="" style="shape=partialRectangle;top=0;left=0;bottom=0;html=1;fillColor=none;align=left;verticalAlign=top;spacingLeft=4;spacingRight=4;whiteSpace=wrap;overflow=hidden;rotatable=0;points=[];portConstraint=eastwest;part=1;fontStyle=0" vertex="1" connectable="0" parent="4zKfhWnxIO-Xe_y0Ikxf-13">
          <mxGeometry width="56" height="26" as="geometry" />
        </mxCell>
        <mxCell id="4zKfhWnxIO-Xe_y0Ikxf-15" value="root_cause" style="shape=partialRectangle;top=0;left=0;right=0;bottom=0;html=1;align=left;verticalAlign=top;fillColor=none;spacingLeft=60;spacingRight=4;whiteSpace=wrap;overflow=hidden;rotatable=0;points=[[0,0.5],[1,0.5]];portConstraint=eastwest;dropTarget=0;fontStyle=0" vertex="1" parent="4zKfhWnxIO-Xe_y0Ikxf-8">
          <mxGeometry y="108" width="550" height="26" as="geometry" />
        </mxCell>
        <mxCell id="4zKfhWnxIO-Xe_y0Ikxf-16" value="" style="shape=partialRectangle;top=0;left=0;bottom=0;html=1;fillColor=none;align=left;verticalAlign=top;spacingLeft=4;spacingRight=4;whiteSpace=wrap;overflow=hidden;rotatable=0;points=[];portConstraint=eastwest;part=1;fontStyle=1" vertex="1" connectable="0" parent="4zKfhWnxIO-Xe_y0Ikxf-15">
          <mxGeometry width="56" height="26" as="geometry" />
        </mxCell>
        <mxCell id="4zKfhWnxIO-Xe_y0Ikxf-31" style="edgeStyle=orthogonalEdgeStyle;rounded=0;orthogonalLoop=1;jettySize=auto;html=1;entryX=1;entryY=0.5;entryDx=0;entryDy=0;" edge="1" parent="1" source="4zKfhWnxIO-Xe_y0Ikxf-9" target="VDMEnBiIt8bDcIozuHvG-301">
          <mxGeometry relative="1" as="geometry" />
        </mxCell>
        <mxCell id="4zKfhWnxIO-Xe_y0Ikxf-34" style="edgeStyle=orthogonalEdgeStyle;rounded=0;orthogonalLoop=1;jettySize=auto;html=1;entryX=0.5;entryY=0;entryDx=0;entryDy=0;" edge="1" parent="1" source="4zKfhWnxIO-Xe_y0Ikxf-33" target="4zKfhWnxIO-Xe_y0Ikxf-8">
          <mxGeometry relative="1" as="geometry" />
        </mxCell>
        <mxCell id="4zKfhWnxIO-Xe_y0Ikxf-33" value="&lt;div&gt;Table doesn&#39;t contain unique fields&amp;nbsp;&lt;/div&gt;&lt;div&gt;even if concatenating multiple columns&lt;/div&gt;&lt;div&gt;&lt;br&gt;&lt;/div&gt;&lt;div&gt;A unique_id will be created by concatenating a row_number.&lt;/div&gt;&lt;div&gt;to the autoqa_rating_id&lt;/div&gt;&lt;div&gt;&lt;br&gt;&lt;/div&gt;&lt;div&gt;Category column is fully blank.&lt;/div&gt;" style="ellipse;shape=cloud;whiteSpace=wrap;html=1;spacingLeft=0;" vertex="1" parent="1">
          <mxGeometry x="1205" y="460" width="440" height="190" as="geometry" />
        </mxCell>
      </root>
    </mxGraphModel>
  </diagram>
  <diagram id="WUPmmhmCtCz5WLWa0OVB" name="Page-2">
    <mxGraphModel dx="2074" dy="1104" grid="1" gridSize="10" guides="1" tooltips="1" connect="1" arrows="1" fold="1" page="1" pageScale="1" pageWidth="850" pageHeight="1100" math="0" shadow="0">
      <root>
        <mxCell id="0" />
        <mxCell id="1" parent="0" />
      </root>
    </mxGraphModel>
  </diagram>
</mxfile>
